<?xml version="1.0" encoding="UTF-8" standalone="no"?>
<svg width="187px" height="67px" viewBox="0 0 187 67" version="1.1" xmlns="http://www.w3.org/2000/svg" xmlns:xlink="http://www.w3.org/1999/xlink" xmlns:sketch="http://www.bohemiancoding.com/sketch/ns">
    <!-- Generator: Sketch 3.1 (8751) - http://www.bohemiancoding.com/sketch -->
    <title>Artboard 5</title>
    <desc>Created with Sketch.</desc>
    <defs></defs>
    <g id="Ikony,-Loga" stroke="none" stroke-width="1" fill="none" fill-rule="evenodd" sketch:type="MSPage">
        <g id="Artboard-5" sketch:type="MSArtboardGroup">
            <g id="Imported-Layers-2" sketch:type="MSLayerGroup">
                <path d="M117.030394,48.9265842 L113.545215,48.9265842 C112.038021,48.9265842 110.764577,49.4327327 109.893447,50.344198 L109.659039,48.9265842 L107.64813,48.9265842 L107.64813,66.4812475 L110.26218,66.4812475 L110.26218,53.8885644 C110.26218,52.2341287 111.300556,51.188 112.942074,51.188 L117.030394,51.188 L117.030394,48.9265842 L117.030394,48.9265842 Z M97.260412,64.2191683 L93.2056725,64.2191683 C91.7314014,64.2191683 90.7931092,63.2745347 90.7931092,61.7547624 L90.7931092,61.0456238 C90.7931092,59.5603465 91.7314014,58.6150495 93.2056725,58.6150495 L97.260412,58.6150495 C98.7017606,58.6150495 99.6058134,59.4588515 99.7065563,60.843297 L99.7065563,61.9909208 C99.6058134,63.3753663 98.7017606,64.2191683 97.260412,64.2191683 L97.260412,64.2191683 Z M102.287025,66.4812475 L102.287025,53.686901 C102.287025,50.8171782 100.41044,48.9265842 97.5962218,48.9265842 L93.5744049,48.9265842 C90.7595282,48.9265842 88.8493627,50.8171782 88.8493627,53.686901 L88.8493627,54.4962079 L91.463412,54.4962079 L91.463412,53.6185743 C91.463412,52.133297 92.4017042,51.188 93.8759754,51.188 L97.260412,51.188 C98.7682641,51.188 99.7065563,52.133297 99.7065563,53.6185743 L99.7065563,57.5012574 C98.902588,56.8936139 97.8635528,56.5214653 96.6572711,56.5214653 L92.9041021,56.5214653 C90.0892254,56.5214653 88.1790599,58.4133861 88.1790599,61.2817822 L88.1790599,61.7209307 C88.1790599,64.5568218 90.0892254,66.4812475 92.9041021,66.4812475 L96.6572711,66.4812475 C98.0314577,66.4812475 99.2035,66.042099 100.008127,65.2321287 L100.276116,66.4812475 L102.287025,66.4812475 L102.287025,66.4812475 Z M81.0427711,66.4812475 L83.656162,66.4812475 L83.656162,41.4995347 L81.0427711,41.4995347 L81.0427711,66.4812475 Z M61.5743592,48.9265842 L61.5743592,61.4509406 C61.5743592,64.4553267 63.5846092,66.4812475 66.5667324,66.4812475 L69.7832641,66.4812475 C71.2917746,66.4812475 72.5652183,65.9744356 73.4363486,65.0629703 L73.670757,66.4812475 L75.6816655,66.4812475 L75.6816655,48.9265842 L73.1011972,48.9265842 L73.1011972,61.7547624 C73.0004542,63.2745347 71.9284965,64.2191683 70.3870634,64.2191683 L66.8683028,64.2191683 C65.2267852,64.2191683 64.18775,63.1723762 64.18775,61.4847723 L64.18775,48.9265842 L61.5743592,48.9265842 L61.5743592,48.9265842 Z M54.3024296,53.8885644 L54.3024296,61.7209307 C54.2023451,63.2400396 53.1297289,64.2191683 51.5882958,64.2191683 L48.0695352,64.2191683 C46.4280176,64.2191683 45.3889824,63.1385446 45.3889824,61.4847723 L45.3889824,53.8885644 C45.3889824,52.2341287 46.4280176,51.188 48.0695352,51.188 L51.5882958,51.188 C53.2304718,51.188 54.3024296,52.2341287 54.3024296,53.8885644 L54.3024296,53.8885644 Z M56.8828979,41.4995347 L54.3024296,41.4995347 L54.3024296,50.0410396 C53.4312993,49.3312376 52.2921796,48.9265842 50.9851549,48.9265842 L47.7679648,48.9265842 C44.7865,48.9265842 42.7755915,50.9180099 42.7755915,53.9562277 L42.7755915,61.4509406 C42.7755915,64.4553267 44.7865,66.4812475 47.7679648,66.4812475 L50.9851549,66.4812475 C52.493007,66.4812475 53.7664507,65.9744356 54.637581,65.0629703 L54.8719894,66.4812475 L56.8828979,66.4812475 L56.8828979,41.4995347 L56.8828979,41.4995347 Z M38.7550915,61.4509406 L38.7550915,53.9562277 C38.7550915,50.9180099 36.7784225,48.9265842 33.7620599,48.9265842 L29.6408169,48.9265842 C26.6580352,48.9265842 24.6477852,50.9180099 24.6477852,53.9562277 L24.6477852,61.4509406 C24.6477852,64.4553267 26.6580352,66.4812475 29.6408169,66.4812475 L33.7620599,66.4812475 C36.7784225,66.4812475 38.7550915,64.4553267 38.7550915,61.4509406 L38.7550915,61.4509406 Z M36.1752817,61.4847723 C36.1752817,63.1385446 35.1362465,64.2191683 33.4604894,64.2191683 L29.9423873,64.2191683 C28.3008697,64.2191683 27.2611761,63.1385446 27.2611761,61.4847723 L27.2611761,53.8885644 C27.2611761,52.2341287 28.3008697,51.188 29.9423873,51.188 L33.4604894,51.188 C35.1362465,51.188 36.1752817,52.2341287 36.1752817,53.8885644 L36.1752817,61.4847723 L36.1752817,61.4847723 Z M17.544419,66.4812475 L20.2921338,66.4812475 L20.2921338,42.8501485 L17.611581,42.8501485 L10.2059859,56.8259505 L2.80039085,42.8501485 L0.119838028,42.8501485 L0.119838028,66.4812475 L2.90047535,66.4812475 L2.90047535,48.3527723 L10.2059859,62.1600792 L17.544419,48.3527723 L17.544419,66.4812475 L17.544419,66.4812475 Z" id="Fill-1" fill="#A0ADA2" sketch:type="MSShapeGroup"></path>
                <path d="M40.3004754,34.0333465 L21.892169,16.6014059 L39.3391373,0.137980198 L26.2175317,0.137980198 L13.2690986,12.7266832 L9.73190141,12.7266832 L9.73190141,0.137980198 L0.119838028,0.137980198 L0.119838028,34.0333465 L9.73190141,34.0333465 L9.73190141,21.4439802 L13.5160176,21.4439802 L26.4585246,34.0333465 L40.3004754,34.0333465 L40.3004754,34.0333465 Z M73.5153627,24.5903267 C73.5153627,25.0752475 73.2750282,25.3173762 72.7943592,25.3173762 L53.3292394,25.3173762 C52.847912,25.3173762 52.6082359,25.0752475 52.6082359,24.5903267 L52.6082359,9.58033663 C52.6082359,9.09607921 52.847912,8.8539505 53.3292394,8.8539505 L72.7943592,8.8539505 C73.2750282,8.8539505 73.5153627,9.09607921 73.5153627,9.58033663 L73.5153627,24.5903267 L73.5153627,24.5903267 Z M83.1280845,26.2852277 L83.1280845,7.88609901 C83.1280845,3.23722772 80.0518028,0.137980198 73.5153627,0.137980198 L52.6082359,0.137980198 C46.0711373,0.137980198 42.9955141,3.23722772 42.9955141,7.88609901 L42.9955141,26.2852277 C42.9955141,30.934099 46.0711373,34.0333465 52.6082359,34.0333465 L73.5153627,34.0333465 C80.0518028,34.0333465 83.1280845,30.934099 83.1280845,26.2852277 L83.1280845,26.2852277 Z M126.064996,34.0333465 L135.678377,34.0333465 L135.678377,0.137980198 L126.064996,0.137980198 L113.37731,16.0693861 L100.687648,0.137980198 L91.0749261,0.137980198 L91.0749261,34.0333465 L100.687648,34.0333465 L100.687648,15.2448218 L113.37731,31.127802 L126.064996,15.2448218 L126.064996,34.0333465 L126.064996,34.0333465 Z M168.599595,19.5062871 L158.842673,19.5062871 L163.696771,9.72561386 L168.599595,19.5062871 L168.599595,19.5062871 Z M186.767567,34.0333465 L168.83993,0.137980198 L159.179141,0.137980198 L141.252162,34.0333465 L151.585887,34.0333465 L154.469901,28.2222574 L172.925616,28.2222574 L175.857697,34.0333465 L186.767567,34.0333465 L186.767567,34.0333465 Z" id="Fill-2" fill="#C20E1A" sketch:type="MSShapeGroup"></path>
            </g>
        </g>
    </g>
</svg>