<?xml version="1.0" encoding="UTF-8" standalone="no"?>
<svg width="280px" height="210px" viewBox="0 0 280 210" version="1.1" xmlns="http://www.w3.org/2000/svg" xmlns:xlink="http://www.w3.org/1999/xlink" xmlns:sketch="http://www.bohemiancoding.com/sketch/ns">
    <!-- Generator: Sketch 3.1 (8751) - http://www.bohemiancoding.com/sketch -->
    <title>Rectangle 23</title>
    <desc>Created with Sketch.</desc>
    <defs>
        <path id="path-1" d="M23.2397783,73.1771288 C25.2416568,74.0234809 21.6901608,95.861532 14.8663383,107 C35.5867982,91.5350552 33.5047858,75.950051 35.5867962,76.0807958 C36.3847689,76.1309064 37.1894206,76.1563381 38,76.1563381 C41.5418233,76.1563381 44.970472,75.6707831 48.2232698,74.7624783 C64.2446925,70.2886878 76,55.559052 76,38.0781691 C76,17.048177 58.9868205,0 38,0 C17.0131795,0 0,17.048177 0,38.0781691 C0,53.8626463 9.58446046,67.4039479 23.2397783,73.1771288 Z"></path>
    </defs>
    <g id="Ikony" stroke="none" stroke-width="1" fill="none" fill-rule="evenodd" sketch:type="MSPage">
        <g id="Artboard-1" sketch:type="MSArtboardGroup">
            <rect id="Rectangle-23" fill="#FBFBFB" sketch:type="MSShapeGroup" x="0" y="0" width="280" height="210"></rect>
            <g id="plachta-s-vlnami-4" sketch:type="MSLayerGroup" transform="translate(99.000000, 51.000000)">
                <path d="M39.8259274,28.251612 C33.804348,15.7223169 23.2490645,9.34600924 23.2490645,9.34600924 C23.2490645,9.34600924 29.1291678,41.1341377 25.8732433,54.4866342 C35.3749162,52.6898362 41.2624527,47.778667 43.8659083,45.3124079 C43.8659083,44.5411299 44.7363284,38.4688422 39.8259274,28.251612 Z" id="Path-88" stroke="#00A3DB" stroke-width="2.5" sketch:type="MSShapeGroup" transform="translate(33.827093, 31.843211) scale(-1, 1) rotate(17.000000) translate(-33.827093, -31.843211) "></path>
                <mask id="mask-2" sketch:name="Oval 2" fill="white">
                    <use xlink:href="#path-1"></use>
                </mask>
                <use id="Oval-2" stroke="#00A3DB" stroke-width="2.5" sketch:type="MSShapeGroup" xlink:href="#path-1"></use>
                <path d="M4.47058824,59.6302083 C17.9186311,59.6302083 18.0888595,53.5 18.0888595,53.5 C18.0888595,53.5 18.0888595,59.5572297 28.2174488,59.4112723 C38.346038,59.265315 38.5588235,53.5 38.5588235,53.5 C38.5588235,53.5 38.1824592,59.6302083 48.4779521,59.6302083 C58.773445,59.6302083 58.9436733,53.5 58.9436733,53.5 C58.9436733,53.5 58.8585592,59.5572297 72.6470588,59.5572297" id="Path-90" stroke="#00A3DB" stroke-width="2.5" sketch:type="MSShapeGroup" mask="url(#mask-2)"></path>
                <path d="M5.02941176,66.875 C18.3672248,66.875 18.5360579,60.7447917 18.5360579,60.7447917 C18.5360579,60.7447917 18.5360579,66.8020213 28.5816259,66.656064 C38.6271939,66.5101066 38.8382353,60.7447917 38.8382353,60.7447917 C38.8382353,60.7447917 38.4649559,66.875 48.6760595,66.875 C58.8871631,66.875 59.0559962,60.7447917 59.0559962,60.7447917 C59.0559962,60.7447917 58.9715796,66.8020213 72.6470588,66.8020213" id="Path-90" stroke="#00A3DB" stroke-width="2.5" sketch:type="MSShapeGroup" mask="url(#mask-2)"></path>
            </g>
        </g>
    </g>
</svg>