<?xml version="1.0" encoding="UTF-8" standalone="no"?>
<svg width="113px" height="132px" viewBox="0 0 113 132" version="1.1" xmlns="http://www.w3.org/2000/svg" xmlns:xlink="http://www.w3.org/1999/xlink" xmlns:sketch="http://www.bohemiancoding.com/sketch/ns">
    <!-- Generator: Sketch 3.1.1 (8761) - http://www.bohemiancoding.com/sketch -->
    <title>montážník</title>
    <desc>Created with Sketch.</desc>
    <defs>
        <path id="path-1" d="M71.1098218,47.7906563 L69.451319,0.0258725912 L0.12600947,0.0258725912 L0.12600947,90.9116085 L46.2322606,89.9165088 L71.1097521,47.7906563 L71.1098218,47.7906563 Z"></path>
    </defs>
    <g id="Page-1" stroke="none" stroke-width="1" fill="none" fill-rule="evenodd" sketch:type="MSPage">
        <g id="Artboard-1" sketch:type="MSArtboardGroup" transform="translate(-1918.000000, -781.000000)">
            <g id="montážník" sketch:type="MSLayerGroup" transform="translate(1913.816320, 780.491250)">
                <g id="Group" transform="translate(71.401211, 66.766934) rotate(30.000044) translate(-71.401211, -66.766934) translate(54.452042, -0.308498)" stroke="#FFFFFF" stroke-width="2.66859248" sketch:type="MSShapeGroup">
                    <path d="M21.1251551,104.736485 C28.2386634,106.370183 33.8903312,113.162674 33.8903312,121.275123 C33.8903312,126.585117 31.4689946,131.329586 27.8155905,134.341706 L27.8155905,119.794126 L16.7976934,112.340387 L5.77979627,119.794126 L5.77979627,134.341706 C2.12639219,131.3296 -0.294944381,126.585117 -0.294944381,121.275123 C-0.294944381,113.162602 5.35670896,106.370168 12.4702317,104.736485 L12.4702317,29.3436987 C5.35672339,27.7100008 -0.294944381,20.9175097 -0.294944381,12.8050607 C-0.294944381,7.49506654 2.12639219,2.75059761 5.77979627,-0.261522063 L5.77979627,14.2860574 L16.7976934,21.7397968 L27.8155905,14.2860574 L27.8155905,-0.261522063 C31.4689946,2.75058318 33.8903312,7.49506654 33.8903312,12.8050607 C33.8903312,20.9175819 28.2386778,27.7100152 21.1251551,29.3436987 L21.1251551,104.736485 L21.1251551,104.736485 Z" id="Shape"></path>
                </g>
                <g id="Group" transform="translate(-0.388599, 0.986414)">
                    <g id="Clipped">
                        <mask id="mask-2" sketch:name="Shape" fill="white">
                            <use xlink:href="#path-1"></use>
                        </mask>
                        <g id="Shape"></g>
                        <g id="Group" mask="url(#mask-2)">
                            <g transform="translate(6.034911, 7.702818)">
                                <g transform="translate(0.434846, 42.918089)">
                                    <path d="M54.4737044,6.03448324 L54.4737044,34.2024814" id="Shape" stroke="#FFFFFF" stroke-width="2.67044651" sketch:type="MSShapeGroup"></path>
                                    <path d="M13.8797096,5.73375728 L13.8797096,33.8349542" id="Shape" stroke="#FFFFFF" stroke-width="2.67044651" sketch:type="MSShapeGroup"></path>
                                    <path d="M21.684104,2.62625571 L21.684104,20.2688453 L45.9469951,20.2688453 L45.9469951,2.02480379" id="Shape" stroke="#FFFFFF" stroke-width="2.67044651" stroke-linecap="round" stroke-linejoin="round" sketch:type="MSShapeGroup"></path>
                                    <path d="M-0.162187822,34.3027234 C-0.162187822,34.3027234 2.27124654,15.3873813 2.54434581,13.9536002 C2.94531375,11.8485184 4.54918553,9.74343674 5.85233135,9.34246879 C7.15547718,8.94150085 23.5617222,0.420932011 23.5617222,0.420932011 C23.5617222,0.420932011 26.3290426,5.49321661 33.7529641,5.46644799 C41.571839,5.43825498 44.0444479,0.72165797 44.0444479,0.72165797 C44.0444479,0.72165797 58.8802619,8.03932297 60.6846177,8.84125886 C62.4889734,9.64319475 64.0928452,11.4475505 64.6942971,13.5526322 C65.295749,15.6577139 67.8017987,34.5032073 67.8017987,34.5032073 L-0.162268016,34.3027234 L-0.162187822,34.3027234 Z" id="Shape" stroke="#FFFFFF" stroke-width="2.67044651" stroke-linecap="round" stroke-linejoin="round" sketch:type="MSShapeGroup"></path>
                                </g>
                                <g transform="translate(14.535088, 0.000000)" stroke-linecap="round" stroke-linejoin="round">
                                    <path d="M33.0293669,25.1270398 C33.0293669,35.9042337 27.1456459,44.4404371 19.7640228,44.4404371 C12.382427,44.4404371 6.39843697,36.104772 6.39843697,25.3275444 C10.4081036,26.3789426 13.9528494,26.5638617 19.7305785,26.5638617 C26.5776401,26.5638504 29.4541112,25.8443013 33.0293669,25.1270398 Z" id="Shape" stroke="#FFFFFF" stroke-width="2.66285321" sketch:type="MSShapeGroup"></path>
                                    <path d="M23.528799,0.531683495 L23.528799,10.6561241" id="Shape" stroke="#FFFFFF" stroke-width="2.67044651" sketch:type="MSShapeGroup"></path>
                                    <path d="M16.110892,0.531683495 L16.110892,10.6561241" id="Shape" stroke="#FFFFFF" stroke-width="2.67044651" sketch:type="MSShapeGroup"></path>
                                    <path d="M34.1624689,15.4533046 C37.0458374,16.1173564 39.22999,17.2534342 39.22999,18.5083034 C39.22999,21.01805 30.4933797,23.0526095 19.7162434,23.0526095 C8.93910719,23.0526095 0.202496832,21.018058 0.202496832,18.5083034 C0.202496832,17.2534261 2.38664942,16.1173556 5.4971743,15.3977705 C5.4009484,15.191519 5.27724819,14.3233769 5.27724819,13.2957202 C5.27724819,5.98791896 11.7997857,0.0637779614 19.8457769,0.0637779614 C27.8917601,0.0637779614 34.4143057,5.98791896 34.4143057,13.2957202 C34.4143057,14.3233769 34.2800335,15.1915207 34.1625764,15.4533046 L34.1624689,15.4533046 Z" id="Shape" stroke="#FFFFFF" stroke-width="2.67044651" sketch:type="MSShapeGroup"></path>
                                    <path d="M12.00899,30.5144626 C12.00899,30.5144626 15.2167335,31.5144626 16.8206053,31.5144626" id="Shape" stroke="#FFFFFF" stroke-width="2.67044651" sketch:type="MSShapeGroup"></path>
                                    <path d="M22.7830689,30.5144626 C22.7830689,30.5144626 25.9908125,31.5144626 27.5946843,31.5144626" id="Shape" stroke="#FFFFFF" stroke-width="2.67044651" sketch:type="MSShapeGroup" transform="translate(25.188877, 31.014463) scale(-1, 1) translate(-25.188877, -31.014463) "></path>
                                </g>
                                <g transform="translate(26.463884, 30.473564)"></g>
                                <g transform="translate(42.448351, 30.423564) scale(-1, 1) translate(-42.448351, -30.423564) translate(42.498351, 30.473564)"></g>
                            </g>
                        </g>
                    </g>
                </g>
            </g>
        </g>
    </g>
</svg>