<?xml version="1.0" encoding="UTF-8" standalone="no"?>
<svg width="128px" height="121px" viewBox="0 0 128 121" version="1.1" xmlns="http://www.w3.org/2000/svg" xmlns:xlink="http://www.w3.org/1999/xlink" xmlns:sketch="http://www.bohemiancoding.com/sketch/ns">
    <!-- Generator: Sketch 3.1.1 (8761) - http://www.bohemiancoding.com/sketch -->
    <title>Shape</title>
    <desc>Created with Sketch.</desc>
    <defs></defs>
    <g id="Page-1" stroke="none" stroke-width="1" fill="none" fill-rule="evenodd" sketch:type="MSPage">
        <g id="Artboard-dark" sketch:type="MSArtboardGroup" transform="translate(-977.000000, -1244.000000)" stroke="#1F1F1F" stroke-width="2.66705452" stroke-linecap="round" stroke-linejoin="round">
            <path d="M1060.00198,1338.76306 C1060.53322,1338.76306 1060.96387,1339.52348 1060.96387,1340.46151 C1060.96387,1341.39954 1060.53322,1342.15996 1060.00198,1342.15996 C1059.47075,1342.15996 1059.0401,1341.39954 1059.0401,1340.46151 C1059.0401,1339.52349 1059.47075,1338.76306 1060.00198,1338.76306 L1060.00198,1338.76306 Z M1067.08333,1351.83981 C1069.10062,1351.83798 1071.74914,1351.24987 1074.47048,1350.07886 C1076.90423,1349.0316 1078.96422,1347.70401 1080.4149,1346.33484 C1077.41474,1351.59537 1071.98539,1356.24762 1063.70706,1359.27117 C1036.44955,1369.22784 992.167039,1360.19431 992.704538,1320.62956 C991.275677,1320.89248 989.438255,1320.91277 987.105277,1320.42389 C978.129028,1318.5431 979.024797,1311.13908 979.024797,1311.13908 C984.822746,1313.7046 983.707988,1311.85161 989.11578,1311.42444 C993.118324,1311.10797 995.530038,1314.84917 996.53791,1316.89372 C996.795621,1314.14992 997.664744,1308.99124 1005.34459,1308.68436 C1005.34459,1308.68436 1009.45293,1308.44256 1009.59462,1305.78711 C1009.59462,1305.78711 1013.97997,1313.3728 1006.73289,1317.2695 C1004.02103,1318.72724 1001.81421,1319.24393 1000.15618,1319.3501 C999.408386,1323.13197 997.82377,1336.33263 1012.14402,1336.33263 C1028.86012,1336.33263 1029.42567,1309.04768 1057.47316,1310.97904 L1057.47316,1310.97904 C1076.24531,1312.27167 1086.74616,1328.33074 1082.24447,1342.18685 C1082.19786,1342.09616 1082.14375,1342.00981 1082.09747,1341.9484 C1080.82908,1344.28557 1077.35341,1346.98761 1072.83727,1348.89248 C1069.54372,1350.28167 1066.33987,1350.97562 1063.92659,1350.96572 C1064.21673,1351.24503 1064.62283,1351.45734 1065.14338,1351.60822 C1065.79848,1351.7325 1066.45143,1351.80635 1067.08335,1351.83982 L1067.08333,1351.83981 Z M1051.39504,1302.30634 L1050.56741,1302.16155 L1049.9289,1301.69615 L1049.47086,1301.07908 L1049.24402,1300.55934 L1049.01503,1299.89909 L1048.42355,1298.03362 L1047.62449,1295.52663 L1046.63249,1292.61579 L1046.0741,1291.09763 L1045.47478,1289.57189 L1044.83946,1288.07552 L1044.17251,1286.64208 L1043.47927,1285.30643 L1042.76691,1284.10391 L1042.03588,1283.05558 L1041.68729,1282.62548 L1041.34257,1282.24843 L1040.58647,1281.55397 L1039.80801,1280.97859 L1039.00449,1280.50124 L1038.18535,1280.11302 L1037.36072,1279.80562 L1036.54191,1279.57084 L1035.74116,1279.40089 L1034.97127,1279.28734 L1034.24539,1279.22162 L1033.58932,1279.19532 L1032.46116,1279.22202 L1031.73814,1279.29132 L1031.47569,1279.33083 L1029.97989,1279.54104 L1028.42098,1279.71698 L1026.82065,1279.84923 L1025.19074,1279.93009 L1023.54283,1279.95132 L1021.88843,1279.90474 L1020.23902,1279.78163 L1018.60608,1279.57306 L1017.00078,1279.26974 L1015.43496,1278.86153 L1013.92064,1278.33792 L1012.48706,1277.69488 L1011.77707,1277.31117 L1011.10283,1276.89891 L1010.45246,1276.44942 L1009.82833,1275.96142 L1009.23297,1275.43378 L1008.66875,1274.86573 L1008.13829,1274.25644 L1007.64568,1273.6077 L1006.60513,1272.03663 L1005.73315,1270.51038 L1005.02082,1269.02579 L1004.46127,1267.58225 L1004.0479,1266.18033 L1003.77395,1264.82106 L1003.63252,1263.50635 L1003.61608,1262.23905 L1003.71609,1261.02215 L1003.92326,1259.85904 L1004.22706,1258.75207 L1004.61674,1257.70315 L1005.08134,1256.71334 L1005.60967,1255.78286 L1006.19093,1254.91101 L1006.81493,1254.09676 L1007.47181,1253.33907 L1008.15161,1252.63682 L1008.8453,1251.98824 L1009.55294,1251.38454 L1010.91609,1250.35547 L1012.20422,1249.51526 L1013.33524,1248.8668 L1014.24443,1248.40225 L1015.10599,1248.014 L1017.03507,1247.38608 L1018.86638,1246.8856 L1020.64157,1246.49672 L1022.36147,1246.21681 L1024.02697,1246.04343 L1025.63867,1245.97387 L1027.19732,1246.00554 L1028.70278,1246.136 L1030.15507,1246.36211 L1031.55426,1246.68105 L1032.89984,1247.08942 L1034.19165,1247.58343 L1035.4295,1248.15931 L1036.61339,1248.81289 L1037.74366,1249.53989 L1038.82088,1250.33608 L1039.84586,1251.19709 L1040.81961,1252.11858 L1041.74338,1253.09665 L1042.61855,1254.12711 L1043.4465,1255.20613 L1044.22893,1256.3301 L1044.96729,1257.49547 L1045.66298,1258.69864 L1046.31765,1259.93617 L1046.93285,1261.20489 L1047.50991,1262.50136 L1048.05029,1263.82246 L1048.55522,1265.16488 L1049.02876,1266.53294 L1049.871,1269.28717 L1050.59509,1272.08416 L1051.20781,1274.88971 L1051.71867,1277.67811 L1052.13695,1280.42354 L1052.47144,1283.10047 L1052.73114,1285.68268 L1052.92499,1288.1442 L1053.06193,1290.46445 L1053.19807,1294.54337 L1053.20992,1297.72867 L1053.1662,1299.80283 L1053.12172,1300.89457 L1052.79833,1301.42578 L1052.53664,1301.73716 L1052.10129,1302.07618 L1051.39505,1302.3063 L1051.39504,1302.30634 Z M1065.07426,1302.22334 L1064.27325,1302.05273 L1063.67647,1301.37774 L1063.54189,1300.75098 L1063.55571,1300.3171 L1063.9401,1298.42714 L1064.30324,1296.89527 L1064.79706,1295.03787 L1065.43288,1292.91108 L1066.22142,1290.5765 L1067.17353,1288.09521 L1068.2964,1285.53791 L1068.93302,1284.23408 L1069.61407,1282.93951 L1070.34522,1281.65425 L1071.12804,1280.38595 L1071.96438,1279.14226 L1072.85607,1277.93116 L1073.80527,1276.76057 L1074.81365,1275.63864 L1075.88355,1274.57364 L1077.01682,1273.57415 L1078.21547,1272.64902 L1079.48086,1271.80751 L1080.81441,1271.05904 L1082.2167,1270.41339 L1083.68768,1269.88002 L1085.21272,1269.47223 L1086.20481,1269.27588 L1087.16225,1269.13128 L1088.09824,1269.03443 L1089.01246,1268.98384 L1089.9044,1268.97839 L1090.77343,1269.01669 L1091.61887,1269.09744 L1092.44017,1269.21919 L1093.23646,1269.38055 L1094.00726,1269.57999 L1094.75198,1269.81613 L1095.48634,1270.09388 L1096.82152,1270.72733 L1098.05763,1271.48967 L1099.17342,1272.3595 L1100.16507,1273.32346 L1101.02867,1274.36823 L1101.76076,1275.48048 L1102.35831,1276.6476 L1102.81743,1277.85697 L1103.13463,1279.09589 L1103.30567,1280.35202 L1103.32577,1281.6122 L1103.18999,1282.86234 L1102.89349,1284.08729 L1102.44064,1285.2483 L1102.13653,1285.83896 L1101.80117,1286.39177 L1101.42347,1286.92543 L1101.00387,1287.437 L1100.54281,1287.92444 L1100.04048,1288.38576 L1099.49763,1288.81892 L1098.91461,1289.22221 L1098.29215,1289.59392 L1097.63046,1289.93261 L1096.93032,1290.23682 L1096.19202,1290.50537 L1095.41575,1290.73714 L1094.60177,1290.93116 L1093.74976,1291.08617 L1092.86002,1291.2011 L1091.93243,1291.27496 L1090.9665,1291.30675 L1089.96215,1291.29525 L1088.91888,1291.23939 L1087.83636,1291.1379 L1086.71417,1290.9896 L1085.55202,1290.79318 L1084.38057,1290.55392 L1083.37952,1290.36596 L1082.44272,1290.25327 L1081.53779,1290.20536 L1080.66347,1290.21789 L1079.81859,1290.28674 L1079.00225,1290.40801 L1078.21337,1290.57813 L1077.45114,1290.79346 L1076.71498,1291.05063 L1076.0046,1291.34614 L1075.31998,1291.67651 L1074.66083,1292.03837 L1074.02761,1292.42803 L1073.43143,1292.83436 L1072.2836,1293.72931 L1071.25619,1294.66539 L1070.33935,1295.62038 L1069.53596,1296.56148 L1068.848,1297.45547 L1068.27731,1298.26882 L1067.82898,1298.96298 L1067.32509,1299.82054 L1067.24923,1300.02862 L1066.9377,1300.73397 L1066.68348,1301.1808 L1066.31872,1301.65607 L1065.73023,1302.08746 L1065.07427,1302.22333 L1065.07426,1302.22334 Z M1060.01337,1282.83581 L1059.62945,1282.77765 L1059.15209,1282.60452 L1058.74368,1282.30461 L1058.40106,1281.83105 L1058.24902,1281.20983 L1058.30493,1280.76406 L1058.38409,1280.33821 L1058.42574,1279.84305 L1058.45243,1278.27785 L1058.3852,1273.69614 L1058.3899,1270.89665 L1058.48823,1267.90095 L1058.58946,1266.34503 L1058.73357,1264.77966 L1058.92755,1263.20969 L1059.1788,1261.64642 L1059.49436,1260.10115 L1059.8821,1258.58492 L1060.35019,1257.10877 L1060.90754,1255.68437 L1061.56331,1254.32367 L1062.32776,1253.03959 L1063.19897,1251.86329 L1063.69986,1251.29345 L1064.22154,1250.76666 L1064.77701,1250.2717 L1065.36685,1249.81127 L1065.99094,1249.38806 L1066.64951,1249.00442 L1067.34228,1248.66282 L1068.0688,1248.36504 L1068.82875,1248.11338 L1069.62156,1247.90901 L1070.44682,1247.75356 L1071.30432,1247.64802 L1072.19382,1247.59331 L1073.11581,1247.59022 L1074.07061,1247.6397 L1075.05879,1247.74254 L1076.081,1247.89959 L1077.15169,1248.1146 L1078.23979,1248.40615 L1079.26351,1248.77962 L1080.20923,1249.22817 L1081.07532,1249.74732 L1081.86024,1250.33212 L1082.56205,1250.97699 L1083.17898,1251.67525 L1083.71038,1252.41995 L1084.15581,1253.20407 L1084.51545,1254.02019 L1084.79037,1254.86108 L1084.98205,1255.72002 L1085.09215,1256.5909 L1085.12263,1257.46761 L1085.07532,1258.3448 L1084.95181,1259.21704 L1084.75398,1260.07931 L1084.48309,1260.92668 L1084.14061,1261.75397 L1083.72769,1262.55632 L1083.24545,1263.32847 L1082.69515,1264.06508 L1082.07776,1264.76097 L1081.39472,1265.41036 L1080.64753,1266.00773 L1079.83778,1266.54725 L1078.96743,1267.02352 L1078.0386,1267.43064 L1077.05392,1267.76339 L1076.0157,1268.01664 L1074.92656,1268.18563 L1073.83518,1268.2626 L1072.9072,1268.31731 L1072.084,1268.41701 L1071.3166,1268.5608 L1070.60232,1268.74514 L1069.93779,1268.96716 L1069.31947,1269.22393 L1068.74406,1269.51288 L1068.20823,1269.83212 L1067.70857,1270.17976 L1067.24244,1270.55432 L1066.80713,1270.95422 L1066.40056,1271.37784 L1066.02094,1271.8237 L1065.67602,1272.27734 L1065.02685,1273.27833 L1064.47204,1274.31874 L1063.9907,1275.39414 L1063.57091,1276.48322 L1063.2004,1277.56314 L1062.54646,1279.62277 L1062.23017,1280.56458 L1061.88789,1281.43881 L1061.60926,1281.98467 L1061.1133,1282.50429 L1060.56436,1282.77542 L1060.01338,1282.83581 L1060.01337,1282.83581 Z" id="Shape" sketch:type="MSShapeGroup"></path>
        </g>
    </g>
</svg>