<?xml version="1.0" encoding="UTF-8" standalone="no"?>
<svg width="125px" height="116px" viewBox="0 0 125 116" version="1.1" xmlns="http://www.w3.org/2000/svg" xmlns:xlink="http://www.w3.org/1999/xlink" xmlns:sketch="http://www.bohemiancoding.com/sketch/ns">
    <!-- Generator: Sketch 3.1.1 (8761) - http://www.bohemiancoding.com/sketch -->
    <title>Shape</title>
    <desc>Created with Sketch.</desc>
    <defs></defs>
    <g id="Page-1" stroke="none" stroke-width="1" fill="none" fill-rule="evenodd" sketch:type="MSPage">
        <g id="Artboard-1" sketch:type="MSArtboardGroup" transform="translate(-666.000000, -1249.000000)" stroke="#FFFFFF" stroke-width="2.66705452" stroke-linecap="round" stroke-linejoin="round">
            <path d="M749.001985,1338.78919 C749.533216,1338.78919 749.963866,1339.54961 749.963866,1340.48764 C749.963866,1341.42567 749.533218,1342.18609 749.001985,1342.18609 C748.470754,1342.18609 748.040104,1341.42567 748.040104,1340.48764 C748.040104,1339.54961 748.470751,1338.78919 749.001985,1338.78919 L749.001985,1338.78919 Z M756.083333,1351.86593 C758.100622,1351.86411 760.749142,1351.27599 763.470477,1350.10498 C765.904234,1349.05772 767.964219,1347.73014 769.414902,1346.36096 C766.414744,1351.62149 760.985391,1356.27375 752.707056,1359.2973 C725.449547,1369.25397 681.167039,1360.22044 681.704538,1320.65569 C680.275677,1320.9186 678.438255,1320.9389 676.105277,1320.45001 C667.129028,1318.56923 668.024797,1311.1652 668.024797,1311.1652 C673.822746,1313.73072 672.707988,1311.87774 678.11578,1311.45056 C682.118324,1311.1341 684.530038,1314.8753 685.53791,1316.91984 C685.795621,1314.17605 686.664744,1309.01737 694.344586,1308.71049 C694.344586,1308.71049 698.452929,1308.46868 698.594621,1305.81324 C698.594621,1305.81324 702.979972,1313.39892 695.732893,1317.29563 C693.021034,1318.75337 690.814214,1319.27005 689.156176,1319.37623 C688.408386,1323.1581 686.82377,1336.35875 701.144021,1336.35875 C717.860125,1336.35875 718.425668,1309.07381 746.473156,1311.00516 L746.473156,1311.00516 C765.245311,1312.29779 775.746164,1328.35687 771.244467,1342.21297 C771.197861,1342.12229 771.143747,1342.03593 771.097473,1341.97453 C769.829077,1344.31169 766.353411,1347.01374 761.837267,1348.91861 C758.543716,1350.30779 755.339874,1351.00175 752.926591,1350.99185 C753.216731,1351.27115 753.622828,1351.48347 754.143379,1351.63434 C754.798475,1351.75862 755.451429,1351.83247 756.083355,1351.86595 L756.083333,1351.86593 Z M743.395043,1307.33246 L742.567406,1307.18767 L741.928903,1306.72228 L741.470859,1306.10521 L741.244015,1305.58547 L741.015031,1304.92521 L740.423555,1303.05975 L739.624491,1300.55276 L738.632489,1297.64192 L738.074102,1296.12376 L737.474783,1294.59802 L736.83946,1293.10165 L736.172508,1291.6682 L735.479266,1290.33255 L734.766912,1289.13004 L734.035878,1288.08171 L733.687292,1287.65161 L733.342574,1287.27456 L732.586467,1286.5801 L731.808012,1286.00471 L731.004489,1285.52737 L730.185347,1285.13915 L729.360718,1284.83174 L728.541911,1284.59697 L727.741161,1284.42701 L726.971265,1284.31346 L726.245393,1284.24775 L725.589322,1284.22145 L724.461163,1284.24815 L723.73814,1284.31745 L723.475694,1284.35696 L721.979887,1284.56717 L720.420976,1284.7431 L718.820645,1284.87536 L717.190741,1284.95622 L715.542834,1284.97745 L713.888434,1284.93087 L712.239022,1284.80776 L710.606077,1284.59919 L709.000783,1284.29587 L707.434963,1283.88765 L705.920637,1283.36404 L704.487059,1282.72101 L703.777073,1282.3373 L703.102833,1281.92504 L702.452461,1281.47555 L701.828335,1280.98754 L701.232967,1280.45991 L700.668753,1279.89185 L700.138295,1279.28257 L699.64568,1278.63383 L698.605128,1277.06276 L697.733152,1275.53651 L697.020823,1274.05191 L696.461273,1272.60837 L696.0479,1271.20645 L695.773951,1269.84719 L695.63252,1268.53248 L695.616084,1267.26518 L695.716087,1266.04828 L695.923263,1264.88516 L696.227061,1263.7782 L696.616739,1262.72928 L697.081341,1261.73947 L697.609666,1260.80898 L698.190928,1259.93714 L698.814927,1259.12289 L699.471806,1258.36519 L700.151606,1257.66295 L700.845304,1257.01436 L701.55294,1256.41067 L702.91609,1255.3816 L704.204215,1254.54138 L705.335236,1253.89292 L706.24443,1253.42838 L707.10599,1253.04012 L709.035067,1252.4122 L710.866382,1251.91172 L712.641567,1251.52285 L714.361474,1251.24294 L716.026968,1251.06955 L717.638672,1251 L719.197321,1251.03167 L720.702784,1251.16213 L722.15507,1251.38823 L723.55426,1251.70718 L724.899839,1252.11554 L726.191651,1252.60955 L727.429501,1253.18544 L728.613389,1253.83901 L729.743658,1254.56601 L730.82088,1255.36221 L731.845856,1256.22322 L732.819609,1257.14471 L733.743381,1258.12277 L734.618546,1259.15324 L735.446502,1260.23226 L736.228926,1261.35623 L736.967293,1262.52159 L737.662984,1263.72477 L738.317654,1264.96229 L738.932849,1266.23101 L739.509914,1267.52748 L740.050288,1268.84858 L740.555217,1270.191 L741.028759,1271.55907 L741.870999,1274.31329 L742.595087,1277.11029 L743.207815,1279.91583 L743.718667,1282.70424 L744.136955,1285.44967 L744.471442,1288.1266 L744.731138,1290.70881 L744.924987,1293.17033 L745.061928,1295.49057 L745.198066,1299.56949 L745.209922,1302.7548 L745.166196,1304.82896 L745.121723,1305.9207 L744.798327,1306.45191 L744.536641,1306.76329 L744.101291,1307.10231 L743.395054,1307.33243 L743.395043,1307.33246 Z M751.074263,1307.24947 L750.27325,1307.07885 L749.676472,1306.40387 L749.541885,1305.7771 L749.555712,1305.34323 L749.940102,1303.45327 L750.30324,1301.9214 L750.797057,1300.064 L751.432884,1297.93721 L752.221416,1295.60263 L753.173527,1293.12134 L754.296396,1290.56404 L754.933024,1289.26021 L755.614071,1287.96564 L756.345225,1286.68038 L757.128037,1285.41208 L757.964382,1284.16838 L758.856071,1282.95729 L759.805271,1281.78669 L760.81365,1280.66476 L761.883554,1279.59976 L763.016823,1278.60028 L764.215469,1277.67514 L765.480864,1276.83364 L766.814408,1276.08517 L768.216697,1275.43952 L769.687681,1274.90614 L771.212718,1274.49836 L772.20481,1274.302 L773.162251,1274.1574 L774.098239,1274.06056 L775.012461,1274.00997 L775.904395,1274.00451 L776.773428,1274.04281 L777.618873,1274.12357 L778.440174,1274.24531 L779.236461,1274.40668 L780.007261,1274.60612 L780.751983,1274.84226 L781.486338,1275.12 L782.821517,1275.75345 L784.057625,1276.51579 L785.173422,1277.38563 L786.165073,1278.34958 L787.028668,1279.39435 L787.760758,1280.50661 L788.358305,1281.67372 L788.817426,1282.88309 L789.13463,1284.12202 L789.305672,1285.37814 L789.325767,1286.63833 L789.189989,1287.88846 L788.893491,1289.11342 L788.440636,1290.27443 L788.136533,1290.86508 L787.801175,1291.41789 L787.423474,1291.95155 L787.003868,1292.46313 L786.542806,1292.95056 L786.04048,1293.41188 L785.497629,1293.84505 L784.914607,1294.24833 L784.292147,1294.62004 L783.630457,1294.95874 L782.930317,1295.26294 L782.192019,1295.53149 L781.415751,1295.76326 L780.60177,1295.95729 L779.74976,1296.11229 L778.860017,1296.22722 L777.932426,1296.30109 L776.966498,1296.33287 L775.96215,1296.32138 L774.918875,1296.26552 L773.836363,1296.16402 L772.714173,1296.01573 L771.552017,1295.81931 L770.380574,1295.58005 L769.379521,1295.39209 L768.442716,1295.2794 L767.53779,1295.23149 L766.663475,1295.24401 L765.818594,1295.31286 L765.00225,1295.43413 L764.213366,1295.60426 L763.451135,1295.81958 L762.714984,1296.07676 L762.004605,1296.37227 L761.319976,1296.70264 L760.66083,1297.0645 L760.02761,1297.45416 L759.431426,1297.86048 L758.283595,1298.75544 L757.256191,1299.69152 L756.339352,1300.6465 L755.535956,1301.58761 L754.847997,1302.4816 L754.27731,1303.29494 L753.828976,1303.9891 L753.325094,1304.84667 L753.249229,1305.05474 L752.937695,1305.76009 L752.683476,1306.20692 L752.318715,1306.6822 L751.730234,1307.11358 L751.074273,1307.24945 L751.074263,1307.24947 Z M749.013373,1287.86194 L748.629453,1287.80378 L748.152085,1287.63065 L747.743682,1287.33074 L747.401056,1286.85717 L747.249016,1286.23596 L747.30493,1285.79018 L747.384086,1285.36433 L747.425743,1284.86917 L747.452434,1283.30398 L747.385204,1278.72227 L747.389897,1275.92278 L747.48823,1272.92708 L747.589462,1271.37115 L747.733571,1269.80579 L747.927546,1268.23582 L748.178796,1266.67255 L748.494364,1265.12728 L748.882095,1263.61104 L749.350189,1262.13489 L749.907538,1260.7105 L750.563307,1259.34979 L751.327759,1258.06571 L752.198975,1256.88942 L752.699861,1256.31958 L753.221537,1255.79278 L753.777011,1255.29783 L754.366846,1254.8374 L754.99094,1254.41418 L755.649514,1254.03055 L756.342278,1253.68894 L757.068804,1253.39117 L757.82875,1253.13951 L758.621559,1252.93513 L759.446817,1252.77968 L760.304322,1252.67415 L761.19382,1252.61943 L762.11581,1252.61635 L763.07061,1252.66583 L764.058794,1252.76867 L765.080999,1252.92571 L766.151688,1253.14072 L767.239792,1253.43227 L768.263509,1253.80575 L769.209234,1254.25429 L770.075324,1254.77344 L770.860235,1255.35824 L771.562046,1256.00312 L772.178984,1256.70138 L772.710376,1257.44607 L773.155805,1258.2302 L773.515447,1259.04632 L773.790371,1259.88721 L773.982051,1260.74614 L774.092148,1261.61703 L774.122632,1262.49373 L774.075323,1263.37092 L773.951809,1264.24317 L773.753975,1265.10543 L773.483085,1265.9528 L773.140608,1266.7801 L772.727691,1267.58244 L772.245454,1268.35459 L771.695149,1269.0912 L771.077759,1269.7871 L770.394716,1270.43648 L769.647527,1271.03385 L768.83778,1271.57337 L767.96743,1272.04965 L767.038597,1272.45677 L766.053921,1272.78952 L765.015699,1273.04276 L763.926565,1273.21176 L762.835182,1273.28873 L761.907199,1273.34343 L761.084001,1273.44313 L760.316595,1273.58692 L759.602321,1273.77127 L758.937793,1273.99329 L758.319466,1274.25005 L757.744058,1274.53901 L757.208231,1274.85825 L756.708574,1275.20589 L756.242441,1275.58044 L755.807129,1275.98034 L755.400564,1276.40397 L755.020938,1276.84982 L754.676019,1277.30346 L754.026853,1278.30445 L753.472036,1279.34487 L752.990702,1280.42027 L752.570908,1281.50935 L752.200401,1282.58926 L751.546461,1284.6489 L751.230171,1285.59071 L750.88789,1286.46494 L750.609261,1287.0108 L750.113299,1287.53041 L749.564358,1287.80154 L749.013383,1287.86193 L749.013373,1287.86194 Z" id="Shape" sketch:type="MSShapeGroup"></path>
        </g>
    </g>
</svg>