<?xml version="1.0" encoding="UTF-8" standalone="no"?>
<svg width="117px" height="116px" viewBox="0 0 117 116" version="1.1" xmlns="http://www.w3.org/2000/svg" xmlns:xlink="http://www.w3.org/1999/xlink" xmlns:sketch="http://www.bohemiancoding.com/sketch/ns">
    <!-- Generator: Sketch 3.1.1 (8761) - http://www.bohemiancoding.com/sketch -->
    <title>kurátor</title>
    <desc>Created with Sketch.</desc>
    <defs></defs>
    <g id="Page-1" stroke="none" stroke-width="1" fill="none" fill-rule="evenodd" sketch:type="MSPage">
        <g id="Artboard-1" sketch:type="MSArtboardGroup" transform="translate(-665.000000, -1248.000000)">
            <g id="kurátor" sketch:type="MSLayerGroup" transform="translate(667.000000, 1250.000000)">
                <path d="M54.3208163,61.1297959 C54.3208163,54.3657143 48.7910204,48.884898 42.0269388,48.884898 C39.0122449,48.884898 36.2620408,50.0138776 34.1289796,51.8212245 C34.1240816,51.8163265 34.0873469,51.7893878 34.0873469,51.7893878 C24.2914286,61.5853061 0.144489796,58.6808163 0.144489796,58.6808163 C0.144489796,58.6808163 14.6914286,78.1183673 44.0791837,73.2204082 L44.0791837,73.1836735 C48.9771429,72.2702041 54.3208163,67.242449 54.3208163,61.1297959 L54.3208163,61.1297959 Z M79.8073469,51.7893878 C79.8073469,51.7893878 79.7877551,51.8163265 79.7828571,51.8212245 C77.6497959,50.0138776 74.9240816,48.884898 71.9093878,48.884898 C65.1477551,48.884898 58.9469388,54.3657143 58.9469388,61.1297959 C58.9469388,67.242449 63.6734694,72.2702041 68.5714286,73.1836735 L68.5714286,73.2204082 C97.9591837,78.1183673 113.125714,58.6808163 113.125714,58.6808163 C113.125714,58.6808163 89.6032653,61.5853061 79.8073469,51.7893878 L79.8073469,51.7893878 Z M105.810612,26.8416327 C96.0146939,10.1102041 76.4204082,-0.026122449 56.8285714,-0.026122449 C37.2367347,-0.026122449 17.642449,10.1102041 7.84653061,26.8416327 C-1.94938776,43.5755102 12.7444898,51.3338776 22.5404082,41.5379592 C30.2840816,33.7942857 32.3363265,19.1885714 42.1346939,19.1885714 C51.9306122,19.1885714 47.0326531,29.2930612 56.8285714,29.2930612 C66.6244898,29.2930612 61.7265306,19.1885714 71.522449,19.1885714 C81.3183673,19.1885714 83.3706122,33.7942857 91.1142857,41.5379592 C100.912653,51.3338776 115.60898,43.5755102 105.810612,26.8416327 L105.810612,26.8416327 Z" id="Stroke-1" stroke="#FFFFFF" stroke-width="2.67" stroke-linecap="round" stroke-linejoin="round" sketch:type="MSShapeGroup"></path>
                <path d="M102.857143,67.122449 L102.857143,79.3232653 C97.9591837,85.722449 75.7126531,112.563265 56.3240816,112.563265 C36.5289796,112.563265 9.79591837,85.6220408 9.79591837,79.3232653 L9.79591837,67.122449" id="Stroke-2" stroke="#FFFFFF" stroke-width="2.67" stroke-linejoin="round" sketch:type="MSShapeGroup"></path>
                <path d="M47.0326531,39.0889796 C47.0326531,40.4432653 45.9355102,41.5379592 44.5836735,41.5379592 C43.2293878,41.5379592 42.1346939,40.4432653 42.1346939,39.0889796 C42.1346939,37.7346939 43.2293878,36.64 44.5836735,36.64 C45.9355102,36.64 47.0326531,37.7346939 47.0326531,39.0889796 L47.0326531,39.0889796 Z" id="Fill-3" fill="#000106" sketch:type="MSShapeGroup"></path>
                <path d="M47.0326531,39.0889796 C47.0326531,40.4432653 45.9355102,41.5379592 44.5836735,41.5379592 C43.2293878,41.5379592 42.1346939,40.4432653 42.1346939,39.0889796 C42.1346939,37.7346939 43.2293878,36.64 44.5836735,36.64 C45.9355102,36.64 47.0326531,37.7346939 47.0326531,39.0889796 L47.0326531,39.0889796 Z" id="Stroke-4" stroke="#FFFFFF" stroke-width="2.67" sketch:type="MSShapeGroup"></path>
                <path d="M71.522449,39.0889796 C71.522449,40.4432653 70.4277551,41.5379592 69.0734694,41.5379592 C67.7191837,41.5379592 66.6244898,40.4432653 66.6244898,39.0889796 C66.6244898,37.7346939 67.7191837,36.64 69.0734694,36.64 C70.4277551,36.64 71.522449,37.7346939 71.522449,39.0889796 L71.522449,39.0889796 Z" id="Fill-5" fill="#000106" sketch:type="MSShapeGroup"></path>
                <path d="M71.522449,39.0889796 C71.522449,40.4432653 70.4277551,41.5379592 69.0734694,41.5379592 C67.7191837,41.5379592 66.6244898,40.4432653 66.6244898,39.0889796 C66.6244898,37.7346939 67.7191837,36.64 69.0734694,36.64 C70.4277551,36.64 71.522449,37.7346939 71.522449,39.0889796 L71.522449,39.0889796 Z" id="Stroke-6" stroke="#FFFFFF" stroke-width="2.67" sketch:type="MSShapeGroup"></path>
                <path d="M9.79591837,59.7755102 L9.79591837,45.0816327 M102.857143,59.7755102 L102.857143,45.0816327" id="Stroke-7" stroke="#FFFFFF" stroke-width="2.67" stroke-linejoin="round" sketch:type="MSShapeGroup"></path>
                <path d="M51.4261224,79 L61.2244898,79" id="Stroke-8" stroke="#FFFFFF" stroke-width="2.67" stroke-linecap="round" stroke-linejoin="round" sketch:type="MSShapeGroup"></path>
            </g>
        </g>
    </g>
</svg>