<?xml version="1.0" encoding="UTF-8" standalone="no"?>
<svg width="51px" height="55px" viewBox="0 0 51 55" version="1.1" xmlns="http://www.w3.org/2000/svg" xmlns:xlink="http://www.w3.org/1999/xlink" xmlns:sketch="http://www.bohemiancoding.com/sketch/ns">
    <!-- Generator: Sketch 3.1 (8751) - http://www.bohemiancoding.com/sketch -->
    <title>Group</title>
    <desc>Created with Sketch.</desc>
    <defs></defs>
    <g id="Page-1" stroke="none" stroke-width="1" fill="none" fill-rule="evenodd" sketch:type="MSPage">
        <g id="Group" sketch:type="MSLayerGroup" transform="translate(0.731960, 0.800780)" stroke="#FFFFFF" stroke-width="1.00020104">
            <path d="M8.67531782,53.1727027 L-0.0209479475,5.23864575 C-0.0209479475,5.23864575 5.88008992,0.539228798 16.957432,0.390825521 C27.6959171,0.246963001 30.6145028,4.80391382 35.851068,5.23864575 C40.7553546,5.6457906 43.874406,4.64503466 43.874406,4.64503466 L49.3095708,25.0256506 C49.3095708,25.0256506 44.9126735,26.8182171 39.1639221,26.9054154 C29.3806191,27.0538187 27.67207,21.2108703 19.493831,21.463982 C8.87257854,21.7927008 3.86120117,26.0171215 3.86120117,26.0171215" id="Shape" sketch:type="MSShapeGroup"></path>
            <path d="M0.055010765,5.23764834 C8.51410191,4.41068846 13.2098368,6.12571148 20.812139,10.2338718 C20.812139,10.2338718 9.37236684,12.657782 3.93728639,25.5193086" id="Shape" sketch:type="MSShapeGroup"></path>
            <path d="M20.5577696,10.33181 C20.5577696,10.33181 24.6477852,10.0570906 28.3740634,11.766375 C30.9622366,12.9536012 34.0136895,15.677159 38.20913,15.7237856 C42.6607955,15.7732532 46.3877591,14.5365594 46.3877591,14.5365594" id="Shape" sketch:type="MSShapeGroup"></path>
        </g>
    </g>
</svg>