<?xml version="1.0" standalone="no"?><!DOCTYPE svg PUBLIC "-//W3C//DTD SVG 1.1//EN" "http://www.w3.org/Graphics/SVG/1.1/DTD/svg11.dtd"><svg width="60px" height="60px" version="1.1" xmlns="http://www.w3.org/2000/svg" xmlns:xlink="http://www.w3.org/1999/xlink" xml:space="preserve" style="fill-rule:evenodd;clip-rule:evenodd;stroke-linecap:round;stroke-linejoin:round;stroke-miterlimit:1.41421;"><g><g transform="matrix(1.05425,0,0,1.00749,-2.70204,-0.22169)"><path d="M16.2289,55.7774l-8.24877,-47.5777c0,0 5.59738,-4.66448 16.1047,-4.81178c10.1859,-0.142793 12.9543,4.38028 17.9214,4.81178c4.65192,0.404118 7.61047,-0.589198 7.61047,-0.589198l5.15548,20.2291c0,0 -4.17064,1.77924 -9.62357,1.86579c-9.27987,0.1473 -10.9005,-5.65221 -18.6579,-5.40098c-10.0747,0.326275 -14.8282,4.51929 -14.8282,4.51929" style="fill:none;stroke-width:0.97px;stroke:#fff;"/><path d="M8.05218,8.19871c8.0238,-0.820812 12.4779,0.881461 19.689,4.95908c0,0 -10.8511,2.40589 -16.0065,15.1718" style="fill:none;stroke-width:0.97px;stroke:#fff;"/><path d="M27.4999,13.255c0,0 3.87955,-0.272677 7.41408,1.4239c2.45499,1.1784 5.34942,3.88171 9.32897,3.92799c4.22259,0.0490998 7.75777,-1.1784 7.75777,-1.1784" style="fill:none;stroke-width:0.97px;stroke:#fff;"/></g></g></svg>