<?xml version="1.0" encoding="UTF-8" standalone="no"?>
<svg width="100px" height="102px" viewBox="0 0 100 102" version="1.1" xmlns="http://www.w3.org/2000/svg" xmlns:xlink="http://www.w3.org/1999/xlink" xmlns:sketch="http://www.bohemiancoding.com/sketch/ns">
    <!-- Generator: Sketch 3.1.1 (8761) - http://www.bohemiancoding.com/sketch -->
    <title>kolotoč</title>
    <desc>Created with Sketch.</desc>
    <defs></defs>
    <g id="Page-1" stroke="none" stroke-width="1" fill="none" fill-rule="evenodd" sketch:type="MSPage">
        <g id="Artboard-1" sketch:type="MSArtboardGroup" transform="translate(-1307.000000, -1247.000000)" stroke="#FFFFFF" stroke-width="2">
            <g id="kolotoč" sketch:type="MSLayerGroup" transform="translate(1308.000000, 1248.000000)">
                <path d="M88.5479111,47.6666667 C88.5479111,69.3564444 70.9557333,86.9509333 49.2567111,86.9509333 C27.5553778,86.9509333 9.96551111,69.3564444 9.96551111,47.6666667 C9.96551111,25.9722667 27.5553778,8.37084444 49.2567111,8.37084444 C70.9557333,8.37084444 88.5479111,25.9722667 88.5479111,47.6666667 L88.5479111,47.6666667 Z M74.6812444,47.6597333 C74.6812444,61.6997333 63.2967111,73.0842667 49.2567111,73.0842667 C35.2167111,73.0842667 23.8344889,61.6997333 23.8344889,47.6597333 C23.8344889,33.6289778 35.2167111,22.2375111 49.2567111,22.2375111 C63.2967111,22.2375111 74.6812444,33.6289778 74.6812444,47.6597333 L74.6812444,47.6597333 Z" id="Stroke-1" sketch:type="MSShapeGroup"></path>
                <path d="M77.2257778,98.9617778 L49.2520889,48.5333333 L49.2567111,48.5333333 L21.2876444,99.1790222 L77.2257778,98.9617778 Z M9.24444444,73.9555556 L18.4888889,73.9555556 L18.4888889,83.2 L9.24444444,83.2 L9.24444444,73.9555556 Z M0,50.8444444 L9.24444444,50.8444444 L9.24444444,60.0888889 L0,60.0888889 L0,50.8444444 Z M0,27.7333333 L9.24444444,27.7333333 L9.24444444,36.9777778 L0,36.9777778 L0,27.7333333 Z M18.4865778,4.62222222 L27.7310222,4.62222222 L27.7310222,13.8666667 L18.4865778,13.8666667 L18.4865778,4.62222222 Z M46.2199111,0 L55.4643556,0 L55.4643556,9.24444444 L46.2199111,9.24444444 L46.2199111,0 Z M73.9532444,9.24444444 L83.1976889,9.24444444 L83.1976889,18.4888889 L73.9532444,18.4888889 L73.9532444,9.24444444 Z M87.8199111,32.3555556 L97.0643556,32.3555556 L97.0643556,41.6 L87.8199111,41.6 L87.8199111,32.3555556 Z M87.8199111,55.4666667 L97.0643556,55.4666667 L97.0643556,64.7111111 L87.8199111,64.7111111 L87.8199111,55.4666667 Z M73.9532444,78.5777778 L83.1976889,78.5777778 L83.1976889,87.8222222 L73.9532444,87.8222222 L73.9532444,78.5777778 Z" id="Stroke-2" stroke-linecap="round" stroke-linejoin="round" sketch:type="MSShapeGroup"></path>
            </g>
        </g>
    </g>
</svg>