<?xml version="1.0" encoding="UTF-8" standalone="no"?>
<svg width="115px" height="123px" viewBox="0 0 115 123" version="1.1" xmlns="http://www.w3.org/2000/svg" xmlns:xlink="http://www.w3.org/1999/xlink" xmlns:sketch="http://www.bohemiancoding.com/sketch/ns">
    <!-- Generator: Sketch 3.1.1 (8761) - http://www.bohemiancoding.com/sketch -->
    <title>Vlajka</title>
    <desc>Created with Sketch.</desc>
    <defs></defs>
    <g id="Page-1" stroke="none" stroke-width="1" fill="none" fill-rule="evenodd" sketch:type="MSPage">
        <g id="Artboard-dark" sketch:type="MSArtboardGroup" transform="translate(-1634.000000, -312.000000)" stroke="#1F1F1F" stroke-width="2.67">
            <g id="Vlajka" sketch:type="MSLayerGroup" transform="translate(1635.900000, 314.000000)">
                <path d="M19.32,119.998 L-0.45,11.027 C-0.45,11.027 12.96,0.343 38.14,0.006 C62.56,-0.321 69.19,10.038 81.1,11.027 C92.25,11.952 99.34,9.677 99.34,9.677 L111.23,56.944 C111.23,56.944 101.7,60.085 88.63,60.283 C66.39,60.62 62.5,47.337 43.91,47.913 C19.77,48.66 8.37,58.264 8.37,58.264" id="Shape" sketch:type="MSShapeGroup"></path>
                <path d="M-0.28,11.024 C18.95,9.144 29.63,13.043 46.91,22.383 C46.91,22.383 20.9,27.893 8.55,57.132" id="Shape" sketch:type="MSShapeGroup"></path>
                <path d="M46.33,22.605 C46.33,22.605 55.63,21.981 64.1,25.867 C69.98,28.566 76.92,34.757 86.46,34.863 C96.58,34.976 105.05,32.164 105.05,32.164" id="Shape" sketch:type="MSShapeGroup"></path>
            </g>
        </g>
    </g>
</svg>