<?xml version="1.0" encoding="UTF-8" standalone="no"?>
<svg width="99px" height="89px" viewBox="0 0 99 89" version="1.1" xmlns="http://www.w3.org/2000/svg" xmlns:xlink="http://www.w3.org/1999/xlink" xmlns:sketch="http://www.bohemiancoding.com/sketch/ns">
    <!-- Generator: Sketch 3.1.1 (8761) - http://www.bohemiancoding.com/sketch -->
    <title>oslava</title>
    <desc>Created with Sketch.</desc>
    <defs></defs>
    <g id="Page-1" stroke="none" stroke-width="1" fill="none" fill-rule="evenodd" sketch:type="MSPage">
        <g id="Artboard-dark" sketch:type="MSArtboardGroup" transform="translate(-1628.000000, -1255.000000)" stroke="#1F1F1F" stroke-width="2" stroke-linecap="round" stroke-linejoin="round">
            <g id="oslava" sketch:type="MSLayerGroup" transform="translate(1623.000000, 1253.000000)">
                <path d="M66.68445,87.8167959 L93.63445,87.8167959 L93.63445,50.4698571 L66.68445,50.4698571 L66.68445,87.8167959 Z M100.98445,73.6000612 C100.98445,75.6616122 99.7962,77.8576122 97.766375,77.8576122 L93.63445,77.8576122 L93.63445,57.9392449 L97.766375,57.9392449 C99.7962,57.9392449 100.98445,59.0895306 100.98445,61.1510816 L100.98445,73.6000612 L100.98445,73.6000612 Z M74.03445,56.6943469 L74.03445,79.1025102 L74.03445,56.6943469 Z M86.28445,56.6943469 L86.28445,79.1025102 L86.28445,56.6943469 Z M93.873325,52.6733265 C97.9342,52.6733265 101.33725,49.1938367 101.33725,45.0694898 C101.33725,41.7381429 99.231475,38.8823469 96.26575,37.9187959 C95.313925,33.4334286 91.423325,30.0336122 86.721775,30.0336122 C84.3906,30.0336122 82.2934,30.8776531 80.611475,32.2582449 C79.76745,31.5660816 78.827875,31.0083673 77.789075,30.6274286 C77.671475,30.5838571 77.553875,30.5440204 77.4326,30.5104082 C76.500375,30.2116327 75.527725,30.0024898 74.4975,30.0024898 C73.07895,30.0024898 71.74125,30.3224286 70.524825,30.8726735 C69.5093,30.3348776 68.3725,30 67.148725,30 C63.089075,30 59.798725,33.3450408 59.798725,37.4693878 C59.798725,38.8375306 60.18705,40.1023469 60.817925,41.2040816 C60.18705,42.3070612 59.570875,43.5743673 59.570875,44.9412653 C59.570875,47.1385102 60.55945,49.0967347 61.78445,50.4648776 L61.78445,53.9568163 C61.78445,56.2399592 60.893875,58.3836735 59.031875,59.6609388 C57.071875,61.0054286 56,63.2711429 56,63.6408776 C56,64.5533878 56.31605,65.3961837 56.736225,66.1306735 C56.31605,66.8651633 56.08575,67.7092041 56.08575,68.6204694 C56.08575,71.370449 58.06535,73.6000612 60.7726,73.6000612 C65.6726,73.6000612 66.68445,71.370449 66.68445,68.6204694 L66.68445,64.1637347 L93.873325,52.6733265 Z" id="Imported-Layers" sketch:type="MSShapeGroup" transform="translate(80.500000, 60.500000) rotate(-7.000000) translate(-80.500000, -60.500000) "></path>
                <path d="M15.68445,61.8167959 L42.63445,61.8167959 L42.63445,24.4698571 L15.68445,24.4698571 L15.68445,61.8167959 Z M49.98445,47.6000612 C49.98445,49.6616122 48.7962,51.8576122 46.766375,51.8576122 L42.63445,51.8576122 L42.63445,31.9392449 L46.766375,31.9392449 C48.7962,31.9392449 49.98445,33.0895306 49.98445,35.1510816 L49.98445,47.6000612 L49.98445,47.6000612 Z M23.03445,30.6943469 L23.03445,53.1025102 L23.03445,30.6943469 Z M35.28445,30.6943469 L35.28445,53.1025102 L35.28445,30.6943469 Z M42.873325,26.6733265 C46.9342,26.6733265 50.33725,23.1938367 50.33725,19.0694898 C50.33725,15.7381429 48.231475,12.8823469 45.26575,11.9187959 C44.313925,7.43342857 40.423325,4.03361224 35.721775,4.03361224 C33.3906,4.03361224 31.2934,4.87765306 29.611475,6.2582449 C28.76745,5.56608163 27.827875,5.00836735 26.789075,4.62742857 C26.671475,4.58385714 26.553875,4.54402041 26.4326,4.51040816 C25.500375,4.21163265 24.527725,4.0024898 23.4975,4.0024898 C22.07895,4.0024898 20.74125,4.32242857 19.524825,4.87267347 C18.5093,4.33487755 17.3725,4 16.148725,4 C12.089075,4 8.798725,7.34504082 8.798725,11.4693878 C8.798725,12.8375306 9.18705,14.1023469 9.817925,15.2040816 C9.18705,16.3070612 8.570875,17.5743673 8.570875,18.9412653 C8.570875,21.1385102 9.55945,23.0967347 10.78445,24.4648776 L10.78445,27.9568163 C10.78445,30.2399592 9.893875,32.3836735 8.031875,33.6609388 C6.071875,35.0054286 5,37.2711429 5,37.6408776 C5,38.5533878 5.31605,39.3961837 5.736225,40.1306735 C5.31605,40.8651633 5.08575,41.7092041 5.08575,42.6204694 C5.08575,45.370449 7.06535,47.6000612 9.7726,47.6000612 C14.6726,47.6000612 15.68445,45.370449 15.68445,42.6204694 L15.68445,38.1637347 L42.873325,26.6733265 Z" id="Imported-Layers" sketch:type="MSShapeGroup" transform="translate(29.500000, 34.500000) scale(-1, 1) rotate(-11.000000) translate(-29.500000, -34.500000) "></path>
            </g>
        </g>
    </g>
</svg>