<?xml version="1.0" encoding="UTF-8" standalone="no"?>
<svg width="106px" height="91px" viewBox="0 0 106 91" version="1.1" xmlns="http://www.w3.org/2000/svg" xmlns:xlink="http://www.w3.org/1999/xlink" xmlns:sketch="http://www.bohemiancoding.com/sketch/ns">
    <!-- Generator: Sketch 3.1.1 (8761) - http://www.bohemiancoding.com/sketch -->
    <title>oslava</title>
    <desc>Created with Sketch.</desc>
    <defs></defs>
    <g id="Page-1" stroke="none" stroke-width="1" fill="none" fill-rule="evenodd" sketch:type="MSPage">
        <g id="Artboard-1" sketch:type="MSArtboardGroup" transform="translate(-1624.000000, -1253.000000)" stroke="#FFFFFF" stroke-width="2" stroke-linecap="round" stroke-linejoin="round">
            <g id="oslava" sketch:type="MSLayerGroup" transform="translate(1619.000000, 1251.000000)">
                <path d="M73.68445,89.8167959 L100.63445,89.8167959 L100.63445,52.4698571 L73.68445,52.4698571 L73.68445,89.8167959 Z M107.98445,75.6000612 C107.98445,77.6616122 106.7962,79.8576122 104.766375,79.8576122 L100.63445,79.8576122 L100.63445,59.9392449 L104.766375,59.9392449 C106.7962,59.9392449 107.98445,61.0895306 107.98445,63.1510816 L107.98445,75.6000612 L107.98445,75.6000612 Z M81.03445,58.6943469 L81.03445,81.1025102 L81.03445,58.6943469 Z M93.28445,58.6943469 L93.28445,81.1025102 L93.28445,58.6943469 Z M100.873325,54.6733265 C104.9342,54.6733265 108.33725,51.1938367 108.33725,47.0694898 C108.33725,43.7381429 106.231475,40.8823469 103.26575,39.9187959 C102.313925,35.4334286 98.423325,32.0336122 93.721775,32.0336122 C91.3906,32.0336122 89.2934,32.8776531 87.611475,34.2582449 C86.76745,33.5660816 85.827875,33.0083673 84.789075,32.6274286 C84.671475,32.5838571 84.553875,32.5440204 84.4326,32.5104082 C83.500375,32.2116327 82.527725,32.0024898 81.4975,32.0024898 C80.07895,32.0024898 78.74125,32.3224286 77.524825,32.8726735 C76.5093,32.3348776 75.3725,32 74.148725,32 C70.089075,32 66.798725,35.3450408 66.798725,39.4693878 C66.798725,40.8375306 67.18705,42.1023469 67.817925,43.2040816 C67.18705,44.3070612 66.570875,45.5743673 66.570875,46.9412653 C66.570875,49.1385102 67.55945,51.0967347 68.78445,52.4648776 L68.78445,55.9568163 C68.78445,58.2399592 67.893875,60.3836735 66.031875,61.6609388 C64.071875,63.0054286 63,65.2711429 63,65.6408776 C63,66.5533878 63.31605,67.3961837 63.736225,68.1306735 C63.31605,68.8651633 63.08575,69.7092041 63.08575,70.6204694 C63.08575,73.370449 65.06535,75.6000612 67.7726,75.6000612 C72.6726,75.6000612 73.68445,73.370449 73.68445,70.6204694 L73.68445,66.1637347 L100.873325,54.6733265 Z" id="Imported-Layers" sketch:type="MSShapeGroup" transform="translate(87.500000, 62.500000) rotate(-7.000000) translate(-87.500000, -62.500000) "></path>
                <path d="M15.68445,61.8167959 L42.63445,61.8167959 L42.63445,24.4698571 L15.68445,24.4698571 L15.68445,61.8167959 Z M49.98445,47.6000612 C49.98445,49.6616122 48.7962,51.8576122 46.766375,51.8576122 L42.63445,51.8576122 L42.63445,31.9392449 L46.766375,31.9392449 C48.7962,31.9392449 49.98445,33.0895306 49.98445,35.1510816 L49.98445,47.6000612 L49.98445,47.6000612 Z M23.03445,30.6943469 L23.03445,53.1025102 L23.03445,30.6943469 Z M35.28445,30.6943469 L35.28445,53.1025102 L35.28445,30.6943469 Z M42.873325,26.6733265 C46.9342,26.6733265 50.33725,23.1938367 50.33725,19.0694898 C50.33725,15.7381429 48.231475,12.8823469 45.26575,11.9187959 C44.313925,7.43342857 40.423325,4.03361224 35.721775,4.03361224 C33.3906,4.03361224 31.2934,4.87765306 29.611475,6.2582449 C28.76745,5.56608163 27.827875,5.00836735 26.789075,4.62742857 C26.671475,4.58385714 26.553875,4.54402041 26.4326,4.51040816 C25.500375,4.21163265 24.527725,4.0024898 23.4975,4.0024898 C22.07895,4.0024898 20.74125,4.32242857 19.524825,4.87267347 C18.5093,4.33487755 17.3725,4 16.148725,4 C12.089075,4 8.798725,7.34504082 8.798725,11.4693878 C8.798725,12.8375306 9.18705,14.1023469 9.817925,15.2040816 C9.18705,16.3070612 8.570875,17.5743673 8.570875,18.9412653 C8.570875,21.1385102 9.55945,23.0967347 10.78445,24.4648776 L10.78445,27.9568163 C10.78445,30.2399592 9.893875,32.3836735 8.031875,33.6609388 C6.071875,35.0054286 5,37.2711429 5,37.6408776 C5,38.5533878 5.31605,39.3961837 5.736225,40.1306735 C5.31605,40.8651633 5.08575,41.7092041 5.08575,42.6204694 C5.08575,45.370449 7.06535,47.6000612 9.7726,47.6000612 C14.6726,47.6000612 15.68445,45.370449 15.68445,42.6204694 L15.68445,38.1637347 L42.873325,26.6733265 Z" id="Imported-Layers" sketch:type="MSShapeGroup" transform="translate(29.500000, 34.500000) scale(-1, 1) rotate(-11.000000) translate(-29.500000, -34.500000) "></path>
            </g>
        </g>
    </g>
</svg>