<?xml version="1.0" encoding="UTF-8" standalone="no"?>
<svg width="84px" height="84px" viewBox="0 0 84 84" version="1.1" xmlns="http://www.w3.org/2000/svg" xmlns:xlink="http://www.w3.org/1999/xlink" xmlns:sketch="http://www.bohemiancoding.com/sketch/ns">
    <!-- Generator: Sketch 3.1.1 (8761) - http://www.bohemiancoding.com/sketch -->
    <title>Imported Layers</title>
    <desc>Created with Sketch.</desc>
    <defs></defs>
    <g id="Page-1" stroke="none" stroke-width="1" fill="none" fill-rule="evenodd" sketch:type="MSPage">
        <g id="Artboard-1" sketch:type="MSArtboardGroup" transform="translate(-1949.000000, -1252.000000)" stroke="#FFFFFF" stroke-width="2" stroke-linecap="round" stroke-linejoin="round">
            <path d="M2031.6788,1293.83851 C2031.6788,1316.39637 2013.39282,1334.6788 1990.84029,1334.6788 C1968.2842,1334.6788 1950,1316.39637 1950,1293.83851 C1950,1271.2842 1968.2842,1253 1990.84029,1253 C2013.39282,1253 2031.6788,1271.2842 2031.6788,1293.83851 L2031.6788,1293.83851 Z M1981.96096,1284.96096 C1981.96096,1288.88484 1978.78102,1292.063 1974.85892,1292.063 C1970.93682,1292.063 1967.75688,1288.88484 1967.75688,1284.96096 C1967.75688,1281.03886 1970.93682,1277.85892 1974.85892,1277.85892 C1978.78102,1277.85892 1981.96096,1281.03886 1981.96096,1284.96096 L1981.96096,1284.96096 Z M1999.71784,1284.96096 C1999.71784,1288.88484 2002.89778,1292.063 2006.81988,1292.063 C2010.74198,1292.063 2013.92192,1288.88484 2013.92192,1284.96096 C2013.92192,1281.03886 2010.74198,1277.85892 2006.81988,1277.85892 C2002.89778,1277.85892 1999.71784,1281.03886 1999.71784,1284.96096 L1999.71784,1284.96096 Z M1969.53239,1315.14818 L2012.14641,1304.49157 L1969.53239,1315.14818 Z M2018.13876,1275.41759 L2005.48824,1266.01804 L2018.13876,1275.41759 Z M1963.54004,1275.41759 L1976.19055,1266.01804 L1963.54004,1275.41759 Z" id="Imported-Layers" sketch:type="MSShapeGroup"></path>
        </g>
    </g>
</svg>