<?xml version="1.0" encoding="UTF-8" standalone="no"?>
<svg width="102px" height="105px" viewBox="0 0 102 105" version="1.1" xmlns="http://www.w3.org/2000/svg" xmlns:xlink="http://www.w3.org/1999/xlink" xmlns:sketch="http://www.bohemiancoding.com/sketch/ns">
    <!-- Generator: Sketch 3.1.1 (8761) - http://www.bohemiancoding.com/sketch -->
    <title>pack pavilion</title>
    <desc>Created with Sketch.</desc>
    <defs></defs>
    <g id="Page-1" stroke="none" stroke-width="1" fill="none" fill-rule="evenodd" sketch:type="MSPage">
        <g id="Artboard-dark" sketch:type="MSArtboardGroup" transform="translate(-666.000000, -1492.000000)" stroke="#1F1F1F" stroke-width="2" stroke-linecap="round" stroke-linejoin="round">
            <g id="pack-pavilion" sketch:type="MSLayerGroup" transform="translate(667.000000, 1493.000000)">
                <path d="M59.156338,21.1643836 L43.6633803,32.4520548 L28.1690141,21.1643836 M43.6633803,32.4520548 L43.6633803,13.4069315 C43.6633803,4.83535616 38.4253521,0 29.8690141,0 L0,0" id="Imported-Layers" sketch:type="MSShapeGroup"></path>
                <path d="M70.4239437,74.7822329 L59.156338,83.2479863 L40.8450704,71.9603151 L52.1140845,63.4945616 L70.4239437,74.7822329 Z M70.4239437,74.7822329 L81.6929577,83.2479863 L100.004225,71.9603151 L88.7352113,63.4945616 L70.4239437,74.7822329 Z M70.4239437,52.2054795 L59.156338,43.739726 L40.8450704,55.0259863 L52.1140845,63.4945616 L70.4239437,52.2054795 Z M70.4239437,52.2054795 L81.6929577,43.739726 L100.004225,55.0259863 L88.7352113,63.4945616 L70.4239437,52.2054795 Z M88.1295775,79.6796712 L88.1295775,91.7137397 L69.8197183,103.004233 L51.5098592,91.7137397 L51.5098592,79.6796712 M88.7352113,63.4945616 L70.4239437,52.2054795 L52.1140845,63.4945616 L70.4239437,74.7822329 L88.7352113,63.4945616 L88.7352113,63.4945616 Z" id="Imported-Layers" sketch:type="MSShapeGroup"></path>
            </g>
        </g>
    </g>
</svg>