<?xml version="1.0" encoding="UTF-8" standalone="no"?>
<svg width="83px" height="91px" viewBox="0 0 83 91" version="1.1" xmlns="http://www.w3.org/2000/svg" xmlns:xlink="http://www.w3.org/1999/xlink" xmlns:sketch="http://www.bohemiancoding.com/sketch/ns">
    <!-- Generator: Sketch 3.1.1 (8761) - http://www.bohemiancoding.com/sketch -->
    <title>recycle</title>
    <desc>Created with Sketch.</desc>
    <defs></defs>
    <g id="Page-1" stroke="none" stroke-width="1" fill="none" fill-rule="evenodd" sketch:type="MSPage">
        <g id="Artboard-1" sketch:type="MSArtboardGroup" transform="translate(-1013.000000, -1495.000000)">
            <g id="recycle" sketch:type="MSLayerGroup" transform="translate(1014.000000, 1496.000000)">
                <path d="M68.4283152,72.3665714 C52.774404,87.962898 27.3948485,87.962898 11.7409374,72.3665714 C1.24893738,61.9133878 -2.21017373,47.115102 1.35978182,33.7920408 M11.7409374,15.886 C27.3948485,0.289673469 52.774404,0.289673469 68.4283152,15.886 C78.918404,26.341102 82.3794263,41.1393878 78.8094707,54.4643673 M52.9597818,68.0540816 L68.4283152,72.3665714 L70.3738263,88.2506531 M9.79160404,0 L11.7409374,15.886 L27.2056485,20.2004082" id="Imported-Layers" stroke="#FFFFFF" stroke-width="2" stroke-linecap="round" stroke-linejoin="round" sketch:type="MSShapeGroup"></path>
                <path d="M40.864,50.088 L38.344,50.088 L38.344,47.928 C38.344,47.2559966 38.4219992,46.6500027 38.578,46.11 C38.7340008,45.5699973 38.9499986,45.0840022 39.226,44.652 C39.5020014,44.2199978 39.8139983,43.8300017 40.162,43.482 C40.5100017,43.1339983 40.8639982,42.7920017 41.224,42.456 L42.232,41.556 C42.832003,41.0759976 43.329998,40.5240031 43.726,39.9 C44.122002,39.2759969 44.32,38.4960047 44.32,37.56 C44.32,36.8879966 44.2000012,36.2880026 43.96,35.76 C43.7199988,35.2319974 43.396002,34.7880018 42.988,34.428 C42.579998,34.0679982 42.1060027,33.792001 41.566,33.6 C41.0259973,33.407999 40.4440031,33.312 39.82,33.312 C38.5239935,33.312 37.474004,33.707996 36.67,34.5 C35.865996,35.292004 35.368001,36.2999939 35.176,37.524 L32.728,37.092 C33.0880018,35.2199906 33.9099936,33.7500053 35.194,32.682 C36.4780064,31.6139947 38.0559906,31.08 39.928,31.08 C40.8880048,31.08 41.7939957,31.2179986 42.646,31.494 C43.4980043,31.7700014 44.2359969,32.1779973 44.86,32.718 C45.4840031,33.2580027 45.9819981,33.923996 46.354,34.716 C46.7260019,35.508004 46.912,36.407995 46.912,37.416 C46.912,38.1840038 46.8280008,38.8559971 46.66,39.432 C46.4919992,40.0080029 46.2580015,40.5239977 45.958,40.98 C45.6579985,41.4360023 45.304002,41.8499981 44.896,42.222 C44.487998,42.5940019 44.0560023,42.9719981 43.6,43.356 C43.0959975,43.764002 42.6700017,44.1359983 42.322,44.472 C41.9739983,44.8080017 41.6920011,45.1619981 41.476,45.534 C41.2599989,45.9060019 41.1040005,46.3199977 41.008,46.776 C40.9119995,47.2320023 40.864,47.7839968 40.864,48.432 L40.864,50.088 Z M41.8,55.272 C41.8,55.7760025 41.6200018,56.225998 41.26,56.622 C40.8999982,57.018002 40.4320029,57.216 39.856,57.216 C39.2799971,57.216 38.8120018,57.018002 38.452,56.622 C38.0919982,56.225998 37.912,55.7760025 37.912,55.272 C37.912,54.7679975 38.0919982,54.318002 38.452,53.922 C38.8120018,53.525998 39.2799971,53.328 39.856,53.328 C40.4320029,53.328 40.8999982,53.525998 41.26,53.922 C41.6200018,54.318002 41.8,54.7679975 41.8,55.272 L41.8,55.272 Z" id="?" fill="#FFFFFF" sketch:type="MSShapeGroup"></path>
            </g>
        </g>
    </g>
</svg>