<?xml version="1.0" encoding="UTF-8" standalone="no"?>
<svg width="71px" height="73px" viewBox="0 0 71 73" version="1.1" xmlns="http://www.w3.org/2000/svg" xmlns:xlink="http://www.w3.org/1999/xlink" xmlns:sketch="http://www.bohemiancoding.com/sketch/ns">
    <!-- Generator: Sketch 3.1.1 (8761) - http://www.bohemiancoding.com/sketch -->
    <title>Imported Layers</title>
    <desc>Created with Sketch.</desc>
    <defs></defs>
    <g id="Page-1" stroke="none" stroke-width="1" fill="none" fill-rule="evenodd" sketch:type="MSPage">
        <g id="Artboard-dark" sketch:type="MSArtboardGroup" transform="translate(-1655.000000, -1506.000000)" stroke="#000000" stroke-width="2" stroke-linecap="round" stroke-linejoin="round">
            <path d="M1710.31808,1507 C1710.31808,1517.99502 1701.40235,1545.02083 1690.40003,1545.02083 C1679.39772,1545.02083 1670.48563,1517.99502 1670.48563,1507 L1710.31808,1507 L1710.31808,1507 Z M1671.26552,1519.16667 L1656,1519.16667 C1656,1519.16667 1659.62202,1534.80813 1677.72723,1534.80813 C1674.10522,1538.4338 1674.49455,1538.75743 1674.49455,1538.75743 M1710.19885,1519.16667 L1724.80128,1519.16667 C1724.80128,1519.16667 1721.18048,1534.80813 1703.07527,1534.80813 C1706.69607,1538.4338 1706.63888,1538.75743 1706.63888,1538.75743 M1672.48218,1567.83333 L1708.98218,1567.83333 L1708.98218,1577.56667 L1672.48218,1577.56667 L1672.48218,1567.83333 Z M1682.79587,1541.97917 L1676.71253,1566.3125 L1682.79587,1541.97917 Z M1698.0042,1541.97917 L1704.08753,1566.3125 L1698.0042,1541.97917 Z M1683.96845,1519.43897 L1691.21845,1513.31897 L1691.21845,1535.6681" id="Imported-Layers" sketch:type="MSShapeGroup"></path>
        </g>
    </g>
</svg>