<?xml version="1.0" encoding="UTF-8" standalone="no"?>
<svg width="128px" height="98px" viewBox="0 0 128 98" version="1.1" xmlns="http://www.w3.org/2000/svg" xmlns:xlink="http://www.w3.org/1999/xlink" xmlns:sketch="http://www.bohemiancoding.com/sketch/ns">
    <!-- Generator: Sketch 3.1.1 (8761) - http://www.bohemiancoding.com/sketch -->
    <title>Megafon</title>
    <desc>Created with Sketch.</desc>
    <defs>
        <rect id="path-1" x="0" y="0" width="35.9686" height="76.7577"></rect>
    </defs>
    <g id="Page-1" stroke="none" stroke-width="1" fill="none" fill-rule="evenodd" sketch:type="MSPage">
        <g id="Artboard-dark" sketch:type="MSArtboardGroup" transform="translate(-655.000000, -321.000000)">
            <g id="Megafon" sketch:type="MSLayerGroup" transform="translate(656.000000, 318.000000)">
                <path d="M51.68,28.081 L84.559,-0.221 L84.559,98.079 L51.25,69.406 L51.68,69.406 L51.68,28.081 L51.68,28.081 Z" id="Shape" sketch:type="MSShapeGroup"></path>
                <path d="M24.876,49.697 L24.712,69.463 C24.712,69.463 5.165,69.476 5.165,48.632 C5.165,30.284 24.894,27.428 24.876,27.466 L24.876,49.697 L24.876,49.697 Z" id="Shape" sketch:type="MSShapeGroup"></path>
                <path d="M51.884,69.406 L24.76,69.406 L24.76,27.396 L52.314,27.396" id="Shape" stroke="#1F1F1F" stroke-width="2.37" sketch:type="MSShapeGroup"></path>
                <path d="M32.928,69.452 L43.63,69.452 L51.803,99.737 L41.101,99.737 L32.928,69.452 L32.928,69.452 Z" id="Shape" stroke="#1F1F1F" stroke-width="2.37" sketch:type="MSShapeGroup"></path>
                <path d="M51.9980469,27.5 L51.9980469,69.0030119 L77.9980469,90.5 L77.9980469,6 L51.9980469,27.5 Z" id="Path-32" stroke="#1F1F1F" stroke-width="2.37" sketch:type="MSShapeGroup"></path>
                <path d="M24.9980469,29.7504883 C5.24951243,29.7504883 0.374511378,40.875 0.374511717,48.375 C0.374512057,55.875 3.9946289,67.1254883 24.9980469,67.1254883" id="Path-33" stroke="#1F1F1F" stroke-width="2.37" sketch:type="MSShapeGroup"></path>
                <g id="Clipped" transform="translate(94.000000, 11.000000)">
                    <mask id="mask-2" sketch:name="Rectangle-path" fill="white">
                        <use xlink:href="#path-1"></use>
                    </mask>
                    <g id="Rectangle-path"></g>
                    <g id="Group" mask="url(#mask-2)" stroke="#1F1F1F" stroke-width="2.67" sketch:type="MSShapeGroup">
                        <g transform="translate(-40.000000, 3.000000)" id="Shape">
                            <path d="M35.66,16.831 C45.797,16.831 54.015,25.049 54.015,35.186 C54.015,45.324 45.797,53.542 35.66,53.542 C25.523,53.542 17.305,45.324 17.305,35.186 C17.305,25.049 25.523,16.831 35.66,16.831 L35.66,16.831 Z"></path>
                            <path d="M35.66,8.025 C50.661,8.025 62.822,20.185 62.822,35.186 C62.822,50.188 50.661,62.348 35.66,62.348 C20.659,62.348 8.498,50.188 8.498,35.186 C8.498,20.185 20.659,8.025 35.66,8.025 L35.66,8.025 Z"></path>
                            <path d="M35.66,-0.319 C55.269,-0.319 71.165,15.578 71.165,35.186 C71.165,54.795 55.269,70.692 35.66,70.692 C16.051,70.692 0.155,54.795 0.155,35.186 C0.155,15.578 16.051,-0.319 35.66,-0.319 L35.66,-0.319 Z"></path>
                        </g>
                    </g>
                </g>
            </g>
        </g>
    </g>
</svg>