<?xml version="1.0" encoding="UTF-8" standalone="no"?>
<svg width="109px" height="122px" viewBox="0 0 109 122" version="1.1" xmlns="http://www.w3.org/2000/svg" xmlns:xlink="http://www.w3.org/1999/xlink" xmlns:sketch="http://www.bohemiancoding.com/sketch/ns">
    <!-- Generator: Sketch 3.1.1 (8761) - http://www.bohemiancoding.com/sketch -->
    <title>rýsovátka</title>
    <desc>Created with Sketch.</desc>
    <defs></defs>
    <g id="Page-1" stroke="none" stroke-width="1" fill="none" fill-rule="evenodd" sketch:type="MSPage">
        <g id="Artboard-1" sketch:type="MSArtboardGroup" transform="translate(-1296.000000, -308.000000)" stroke="#FFFFFF" stroke-width="2.67">
            <g id="rýsovátka" sketch:type="MSLayerGroup" transform="translate(1298.000000, 308.000000)">
                <g id="Group" transform="translate(27.000000, 0.000000)" sketch:type="MSShapeGroup">
                    <path d="M39.1,11.088 L39.1,0.411" id="Shape"></path>
                    <path d="M0.43,92.753 L30.33,28.507" id="Shape"></path>
                    <path d="M78.38,92.753 L48.48,28.507" id="Shape"></path>
                    <path d="M38.94,12.166 C44.57,12.166 49.13,16.727 49.13,22.355 C49.13,27.982 44.57,32.544 38.94,32.544 C33.31,32.544 28.75,27.982 28.75,22.355 C28.75,16.727 33.31,12.166 38.94,12.166 L38.94,12.166 Z" id="Shape"></path>
                    <path d="M76.02,22.07 C76.02,42.456 59.49,58.982 39.1,58.982 C31.46,58.982 25.21,57.342 19.32,53.362" id="Shape"></path>
                </g>
                <g id="Group" transform="translate(0.000000, 12.000000)" sketch:type="MSShapeGroup">
                    <path d="M0.06,-0.414 L0.06,108.411 L87.57,108.411 L0.06,-0.414 L0.06,-0.414 Z M10.41,32.398 L10.41,97.745 L64.52,97.745 L10.41,32.398 L10.41,32.398 Z" id="Shape"></path>
                    <path d="M1.12,19.911 L5.37,19.911" id="Shape"></path>
                    <path d="M1.12,27.284 L5.37,27.284" id="Shape"></path>
                    <path d="M1.12,34.657 L5.37,34.657" id="Shape"></path>
                    <path d="M1.12,42.029 L5.37,42.029" id="Shape"></path>
                    <path d="M1.12,49.402 L5.37,49.402" id="Shape"></path>
                    <path d="M1.12,56.774 L5.37,56.774" id="Shape"></path>
                    <path d="M1.12,64.147 L5.37,64.147" id="Shape"></path>
                    <path d="M1.12,71.52 L5.37,71.52" id="Shape"></path>
                    <path d="M1.12,78.892 L5.37,78.892" id="Shape"></path>
                    <path d="M1.12,86.265 L5.37,86.265" id="Shape"></path>
                    <path d="M1.12,93.637 L5.37,93.637" id="Shape"></path>
                    <path d="M1.12,101.01 L5.37,101.01" id="Shape"></path>
                </g>
            </g>
        </g>
    </g>
</svg>