<?xml version="1.0" encoding="UTF-8" standalone="no"?>
<svg width="109px" height="124px" viewBox="0 0 109 124" version="1.1" xmlns="http://www.w3.org/2000/svg" xmlns:xlink="http://www.w3.org/1999/xlink" xmlns:sketch="http://www.bohemiancoding.com/sketch/ns">
    <!-- Generator: Sketch 3.1.1 (8761) - http://www.bohemiancoding.com/sketch -->
    <title>Továrna</title>
    <desc>Created with Sketch.</desc>
    <defs></defs>
    <g id="Page-1" stroke="none" stroke-width="1" fill="none" fill-rule="evenodd" sketch:type="MSPage">
        <g id="Artboard-dark" sketch:type="MSArtboardGroup" transform="translate(-1926.000000, -312.000000)" stroke="#1F1F1F" stroke-width="2.67">
            <g id="Továrna" sketch:type="MSLayerGroup" transform="translate(1927.900000, 314.000000)">
                <path d="M80.71,119.499 L80.71,119.572 L0.28,119.998 L0.28,74.772 L19.48,61.061 L19.48,74.502 L37.62,60.847 L37.62,74.289 L59.38,61.061 L59.38,74.502 L77.51,61.061 L79.57,69.906 L83.91,12.684 L96.72,12.471 L104.83,119.145 L80.71,119.499 L80.71,119.499 Z" id="Shape" sketch:type="MSShapeGroup"></path>
                <path d="M7.89,13.081 C26.26,13.439 25.37,2.059 38.18,2.059 C50.1,2.059 50.81,15.483 62.82,15.321 C76.08,15.142 76.26,0.088 89.53,-0.002" id="Shape" sketch:type="MSShapeGroup"></path>
                <rect id="Rectangle-path" sketch:type="MSShapeGroup" x="9" y="98" width="7.61432" height="12.7457"></rect>
                <rect id="Rectangle-path" sketch:type="MSShapeGroup" x="24" y="98" width="7.61432" height="12.7457"></rect>
                <rect id="Rectangle-path" sketch:type="MSShapeGroup" x="39" y="98" width="7.61432" height="12.7457"></rect>
                <rect id="Rectangle-path" sketch:type="MSShapeGroup" x="54" y="98" width="7.61432" height="12.7457"></rect>
                <rect id="Rectangle-path" sketch:type="MSShapeGroup" x="69" y="98" width="7.61432" height="12.7457"></rect>
            </g>
        </g>
    </g>
</svg>