<?xml version="1.0" encoding="UTF-8" standalone="no"?>
<svg width="118px" height="126px" viewBox="0 0 118 126" version="1.1" xmlns="http://www.w3.org/2000/svg" xmlns:xlink="http://www.w3.org/1999/xlink" xmlns:sketch="http://www.bohemiancoding.com/sketch/ns">
    <!-- Generator: Sketch 3.1.1 (8761) - http://www.bohemiancoding.com/sketch -->
    <title>expedice jedna + Shape</title>
    <desc>Created with Sketch.</desc>
    <defs>
        <rect id="path-1" x="0" y="0" width="119.659141" height="100.610259"></rect>
    </defs>
    <g id="Page-1" stroke="none" stroke-width="1" fill="none" fill-rule="evenodd" sketch:type="MSPage">
        <g id="Artboard-1" sketch:type="MSArtboardGroup" transform="translate(-954.000000, -784.000000)">
            <g id="expedice-jedna-+-Shape" sketch:type="MSLayerGroup" transform="translate(951.000000, 784.000000)">
                <g id="expedice-jedna" transform="translate(0.000000, 17.788235)">
                    <mask id="mask-2" sketch:name="Rectangle-path" fill="white">
                        <use xlink:href="#path-1"></use>
                    </mask>
                    <g id="Rectangle-path"></g>
                    <g id="Group" mask="url(#mask-2)" sketch:type="MSShapeGroup">
                        <g transform="translate(5.153374, 8.152941)" id="Shape">
                            <path d="M81.5263804,20.0495647 L79.207362,20.0495647 L74.8858896,23.6931882 L74.8858896,26.4496235 L79.207362,22.8067412 L79.207362,43.0245529 L81.5263804,43.0245529 L81.5263804,20.0495647 L81.5263804,20.0495647 Z" stroke="none" fill="#FFFFFF" fill-rule="evenodd"></path>
                            <path d="M199.266258,76.7703176 C198.331288,80.8868118 194.746012,83.8893176 190.46135,83.8893176 C186.184049,83.8893176 182.598773,80.8868118 181.64908,76.7510471 L106.939877,76.6672941" stroke="#FFFFFF" stroke-width="2.67" fill="none"></path>
                            <path d="M87.408589,71.2322471 C87.8797546,72.3603176 88.1300613,73.5550941 88.1300613,74.8091647 C88.1300613,79.8239647 84.0957055,83.8893176 79.1116564,83.8893176 C74.1349693,83.8893176 70.0932515,79.8239647 70.0932515,74.8091647 C70.0932515,73.5550941 70.3435583,72.3603176 70.8220859,71.2322471" stroke="#FFFFFF" stroke-width="2.67" fill="none"></path>
                            <path d="M105.644172,71.2322471 C104.296933,68.0148 101.087117,65.7282706 97.3546012,65.7282706 C93.6147239,65.7282706 90.4122699,68.0148 89.0576687,71.2322471 L87.408589,71.2322471 C86.0539877,68.0148 82.8515337,65.7282706 79.1116564,65.7282706 C75.3791411,65.7282706 72.1693252,68.0148 70.8220859,71.2322471 L43.8331288,71.2322471 L43.8331288,0.0793058824 L167.028221,0.0793058824 L167.028221,71.2322471 L105.644172,71.2322471 C106.122699,72.3603176 106.373006,73.5550941 106.373006,74.8091647 C106.373006,79.8239647 102.331288,83.8893176 97.3546012,83.8893176 C92.3705521,83.8893176 88.3288344,79.8239647 88.3288344,74.8091647 C88.3288344,73.5550941 88.5865031,72.3603176 89.0576687,71.2322471" stroke="#FFFFFF" stroke-width="2.67" fill="none"></path>
                            <path d="M38.5325153,59.8574118 L20.1276074,55.9662353" stroke="#FFFFFF" stroke-width="2.67" fill="none"></path>
                            <path d="M38.5325153,67.0838824 L20.1276074,70.9750588" stroke="#FFFFFF" stroke-width="2.67" fill="none"></path>
                            <path d="M18.7509202,63.4706471 L37.9803681,63.4706471" stroke="#FFFFFF" stroke-width="2.67" fill="none"></path>
                            <path d="M18.8319018,75.0737647 C18.8319018,77.2461529 16.9619632,79.0064471 14.6576687,79.0064471 C12.9276074,79.0064471 11.4478528,78.0162353 10.608589,76.0128353 C7.93619632,75.0100235 6.59631902,73.2230471 6.59631902,71.1410824 C6.59631902,70.4466 6.74355828,69.7854706 6.82453988,69.6742941 C2.61349693,68.4802588 0.125153374,65.4710824 0.125153374,61.9141765 C0.125153374,59.1792353 1.59754601,56.7667059 4.26257669,55.0916471 C4.1595092,54.9263647 4.0196319,54.2956235 4.0196319,53.6344941 C4.0196319,50.9884941 6.29447853,48.8442706 9.10674847,48.8442706 C9.80613497,48.8442706 10.4760736,48.9776824 10.991411,49.1881765 C11.2564417,48.4151294 12.7435583,47.4241765 14.4736196,47.4241765 C16.7779141,47.4241765 18.6478528,49.1852118 18.6478528,51.3576" stroke="#FFFFFF" stroke-width="2.67" fill="none"></path>
                        </g>
                    </g>
                </g>
                <path d="M118.895706,0 L118.895706,125.814706" id="Shape" stroke="#FFFFFF" stroke-width="2.67" sketch:type="MSShapeGroup"></path>
            </g>
        </g>
    </g>
</svg>