<?xml version="1.0" encoding="UTF-8" standalone="no"?>
<svg width="113px" height="126px" viewBox="0 0 113 126" version="1.1" xmlns="http://www.w3.org/2000/svg" xmlns:xlink="http://www.w3.org/1999/xlink" xmlns:sketch="http://www.bohemiancoding.com/sketch/ns">
    <!-- Generator: Sketch 3.1.1 (8761) - http://www.bohemiancoding.com/sketch -->
    <title>expedice 2 + Shape</title>
    <desc>Created with Sketch.</desc>
    <defs>
        <rect id="path-1" x="0" y="0" width="112.91302" height="97.6455529"></rect>
    </defs>
    <g id="Page-1" stroke="none" stroke-width="1" fill="none" fill-rule="evenodd" sketch:type="MSPage">
        <g id="Artboard-dark" sketch:type="MSArtboardGroup" transform="translate(-1306.000000, -784.000000)">
            <g id="expedice-2-+-Shape" sketch:type="MSLayerGroup" transform="translate(1308.000000, 784.000000)">
                <g id="expedice-2" transform="translate(0.000000, 19.270588)">
                    <mask id="mask-2" sketch:name="Rectangle-path" fill="white">
                        <use xlink:href="#path-1"></use>
                    </mask>
                    <g id="Rectangle-path"></g>
                    <g id="Group" mask="url(#mask-2)" sketch:type="MSShapeGroup">
                        <g transform="translate(-120.434211, 6.670588)" id="Shape">
                            <path d="M145.732829,31.0664118 C146.580329,30.1799647 147.115592,28.8999529 147.115592,27.2916 L147.115592,25.1251412 C147.115592,22.1715529 145.420592,20.2348588 142.945,20.2348588 L138.298618,20.2348588 C135.785855,20.2348588 134.098289,22.1715529 134.098289,25.1251412 L134.098289,28.2766235 L136.440066,28.2766235 L136.440066,25.2237176 C136.440066,23.6153647 137.309868,22.5984706 138.692632,22.5984706 L142.52125,22.5984706 C143.904013,22.5984706 144.803553,23.6153647 144.803553,25.2237176 L144.803553,27.4887529 C144.803553,28.3092353 144.580526,28.9985294 144.127039,29.4906706 L134.098289,40.8469765 L134.098289,43.2098471 L147.115592,43.2098471 L147.115592,40.8469765 L137.168618,40.8469765 L145.732829,31.0664118 L145.732829,31.0664118 Z" stroke="none" fill="#1F1F1F" fill-rule="evenodd"></path>
                            <path d="M168.169276,71.2322471 L168.295658,67.4025882 L186.568947,67.4025882 C184.323816,68.9108824 182.725461,71.6739882 182.725461,74.8091647 C182.725461,75.5140235 182.807237,76.2003529 182.941053,76.7510471 L168.169276,71.2322471 Z M197.103224,67.4025882 L229.999605,67.4025882 C229.969868,74.5312235 225.427566,76.8429529 219.093618,76.7910706 L200.731118,76.7703176 C200.864934,76.2003529 200.946711,75.5140235 200.946711,74.8091647 C200.946711,71.6739882 199.355789,68.9108824 197.103224,67.4025882 L197.103224,67.4025882 Z" stroke="#1F1F1F" stroke-width="2.67" fill="none"></path>
                            <path d="M200.731118,76.7703176 C199.779539,80.8868118 196.159079,83.8893176 191.839803,83.8893176 C187.513092,83.8893176 183.892632,80.8868118 182.941053,76.7510471 L107.49125,76.6672941" stroke="#1F1F1F" stroke-width="2.67" fill="none"></path>
                            <path d="M186.568947,67.4025882 C188.197039,66.2997176 189.951513,65.7282706 191.839803,65.7282706 C192.835987,65.7282706 193.802434,65.8891059 194.731711,66.2063294 C195.549474,66.4850118 196.3375,66.9141529 197.103224,67.4314941" stroke="#1F1F1F" stroke-width="2.67" fill="none"></path>
                            <path d="M106.182829,71.2322471 C104.822368,68.0148 101.588487,65.7282706 97.8119079,65.7282706 C94.0427632,65.7282706 90.8014474,68.0148 89.4409868,71.2322471 L87.7682895,71.2322471 C86.4078289,68.0148 83.1665132,65.7282706 79.3973684,65.7282706 C75.6207895,65.7282706 72.3869079,68.0148 71.0190132,71.2322471 L43.7726316,71.2322471 L43.7726316,0.0793058824 L168.169276,0.0793058824 L168.169276,71.2322471 L106.182829,71.2322471 C106.666053,72.3603176 106.918816,73.5550941 106.918816,74.8091647 C106.918816,79.8239647 102.844868,83.8893176 97.8119079,83.8893176 C92.7789474,83.8893176 88.705,79.8239647 88.705,74.8091647 C88.705,73.5550941 88.9577632,72.3603176 89.4409868,71.2322471" stroke="#1F1F1F" stroke-width="2.67" fill="none"></path>
                            <path d="M196.917368,67.3129059 L227.241513,67.3129059 L227.241513,40.6305529 C227.241513,40.6305529 227.613224,36.5540824 223.152697,33.2187882 C219.584276,22.6199647 217.584474,16.7216824 211.704013,8.38937647 C211.354605,5.34907059 210.365855,5.57290588 204.269803,5.49878824 C200.537829,5.45357647 179.290855,5.42467059 179.290855,5.42467059 C176.934211,5.71372941 175.819079,6.70245882 175.945461,8.38937647 L175.945461,67.3129059 L186.576382,67.3129059" stroke="#1F1F1F" stroke-width="2.67" fill="none"></path>
                            <path d="M183.677039,33.5100706 L213.859934,33.5100706 C213.859934,33.5100706 214.930461,28.3218353 214.305987,26.7801882 C209.674474,15.5246824 205.860724,10.8893647 205.860724,10.8893647 L183.677039,10.6818353 L183.677039,33.5100706 L183.677039,33.5100706 Z" stroke="#1F1F1F" stroke-width="2.67" fill="none"></path>
                            <path d="M184.204868,39.3342353 L204.611776,39.3898235" stroke="#1F1F1F" stroke-width="2.67" fill="none"></path>
                        </g>
                    </g>
                </g>
                <path d="M0,0 L0,125.814706" id="Shape" stroke="#1F1F1F" stroke-width="2.67" sketch:type="MSShapeGroup"></path>
            </g>
        </g>
    </g>
</svg>