<?xml version="1.0" encoding="UTF-8" standalone="no"?>
<svg width="144px" height="119px" viewBox="0 0 144 119" version="1.1" xmlns="http://www.w3.org/2000/svg" xmlns:xlink="http://www.w3.org/1999/xlink" xmlns:sketch="http://www.bohemiancoding.com/sketch/ns">
    <!-- Generator: Sketch 3.1.1 (8761) - http://www.bohemiancoding.com/sketch -->
    <title>hrubá stavba</title>
    <desc>Created with Sketch.</desc>
    <defs></defs>
    <g id="Page-1" stroke="none" stroke-width="1" fill="none" fill-rule="evenodd" sketch:type="MSPage">
        <g id="Artboard-1" sketch:type="MSArtboardGroup" transform="translate(-1565.000000, -788.000000)">
            <g id="hrubá-stavba" sketch:type="MSLayerGroup" transform="translate(1566.830680, 789.034040)">
                <path d="M124.450541,99.2026389 L78.1795183,91.0670706 L54.2812208,104.795851 L43.0948126,54.9654131 L23.772775,51.9145731" id="Shape" stroke="#FFFFFF" stroke-width="2.669485" stroke-linecap="round" stroke-linejoin="round" sketch:type="MSShapeGroup"></path>
                <g id="držátko" transform="translate(9.959203, 49.114871) rotate(8.875212) translate(-9.959203, -49.114871) translate(0.043970, 45.301320)" stroke="#FFFFFF" stroke-width="2.6694858" fill="#FFFFFF" sketch:type="MSShapeGroup">
                    <path d="M19.1897893,2.08372434 C19.1897893,0.960435227 18.2791835,0.0498354863 17.1559005,0.0498354863 L1.90169592,0.0498354863 C0.778406804,0.0498354863 -0.132192937,0.960441329 -0.132192937,2.08372434 L-0.132192937,6.15151731 C-0.132192937,7.27480642 0.778412906,8.18540616 1.90169592,8.18540616 L17.1559005,8.18540616 C18.2791896,8.18540616 19.1897893,7.27480032 19.1897893,6.15151731 L19.1897893,2.08372434 L19.1897893,2.08372434 Z" id="Shape"></path>
                </g>
                <g id="korbička" transform="translate(51.338853, 7.084653)" stroke="#FFFFFF" stroke-width="2.669485" sketch:type="MSShapeGroup" stroke-linecap="round" stroke-linejoin="round">
                    <path d="M0.3966092,30.0503389 L87.8539717,30.0503389 L51.7523142,80.8976213 L5.98971417,74.2874731 L0.396502421,30.0502931 L0.3966092,30.0503389 Z" id="Shape"></path>
                </g>
                <g id="písek" transform="translate(61.016793, 0.423731)" sketch:type="MSShapeGroup">
                    <path d="M0.3745778,31.5746686 L69.0184778,31.5746686 C69.0184778,31.5746686 46.8998878,0.049271066 35.4592378,0.049271066 C24.0185878,0.049271066 0.3745778,31.5746686 0.3745778,31.5746686 L0.3745778,31.5746686 Z" id="Shape" stroke="#FFFFFF" stroke-width="2.669485"></path>
                    <circle id="Oval-1" fill="#FFFFFF" cx="35.32206" cy="8.66092225" r="2"></circle>
                    <circle id="Oval-2" fill="#FFFFFF" cx="44.32206" cy="16.6609222" r="2"></circle>
                    <circle id="Oval-3" fill="#FFFFFF" cx="24.32206" cy="16.6609222" r="2"></circle>
                    <circle id="Oval-4" fill="#FFFFFF" cx="15.32206" cy="24.6609222" r="2"></circle>
                    <circle id="Oval-5" fill="#FFFFFF" cx="34.32206" cy="25.6609222" r="2"></circle>
                    <circle id="Oval-6" fill="#FFFFFF" cx="52.32206" cy="25.6609222" r="2"></circle>
                </g>
                <g id="kolečko" transform="translate(107.251558, 82.420914)" stroke="#FFFFFF" stroke-width="5.00686584" sketch:type="MSShapeGroup">
                    <path d="M15.6760925,0.510449275 C24.6623986,0.510449275 31.9472907,7.79528566 31.9472907,16.7816475 C31.9472907,25.7679536 24.6624543,33.0528458 15.6760925,33.0528458 C6.68978642,33.0528458 -0.595105753,25.7680094 -0.595105753,16.7816475 C-0.595105753,7.79534144 6.68973063,0.510449275 15.6760925,0.510449275 L15.6760925,0.510449275 Z" id="Shape"></path>
                </g>
            </g>
        </g>
    </g>
</svg>