<?xml version="1.0" encoding="UTF-8" standalone="no"?>
<svg width="144px" height="119px" viewBox="0 0 144 119" version="1.1" xmlns="http://www.w3.org/2000/svg" xmlns:xlink="http://www.w3.org/1999/xlink" xmlns:sketch="http://www.bohemiancoding.com/sketch/ns">
    <!-- Generator: Sketch 3.1.1 (8761) - http://www.bohemiancoding.com/sketch -->
    <title>hrubá stavba</title>
    <desc>Created with Sketch.</desc>
    <defs></defs>
    <g id="Page-1" stroke="none" stroke-width="1" fill="none" fill-rule="evenodd" sketch:type="MSPage">
        <g id="Artboard-dark" sketch:type="MSArtboardGroup" transform="translate(-1565.000000, -788.000000)">
            <g id="hrubá-stavba" sketch:type="MSLayerGroup" transform="translate(1566.830680, 789.034040)">
                <path d="M124.450541,99.2026389 L78.1795183,91.0670706 L54.2812208,104.795851 L43.0948126,54.9654131 L23.772775,51.9145731" id="Shape" stroke="#1F1F1F" stroke-width="2.669485" stroke-linecap="round" stroke-linejoin="round" sketch:type="MSShapeGroup"></path>
                <g id="držátko" transform="translate(9.522063, 49.241716) rotate(8.875212) translate(-9.522063, -49.241716) translate(0.022063, 45.241716)" stroke="#1F1F1F" stroke-width="2.6694858" sketch:type="MSShapeGroup">
                    <path d="M19.1868929,2.07740352 C19.1868929,0.954114403 18.2762871,0.0435146619 17.1530041,0.0435146619 L1.89879952,0.0435146619 C0.775510402,0.0435146619 -0.135089338,0.954120504 -0.135089338,2.07740352 L-0.135089338,6.14519648 C-0.135089338,7.2684856 0.775516504,8.17908534 1.89879952,8.17908534 L17.1530041,8.17908534 C18.2762932,8.17908534 19.1868929,7.2684795 19.1868929,6.14519648 L19.1868929,2.07740352 L19.1868929,2.07740352 Z" id="Shape"></path>
                </g>
                <g id="korbička" transform="translate(51.338853, 37.084653)" stroke="#1F1F1F" stroke-width="2.669485" sketch:type="MSShapeGroup" stroke-linecap="round" stroke-linejoin="round">
                    <path d="M0.3966092,0.05033886 L87.8539717,0.05033886 L51.7523142,50.8976213 L5.98971417,44.2874731 L0.396502421,0.0502930974 L0.3966092,0.05033886 Z" id="Shape"></path>
                </g>
                <g id="písek" transform="translate(61.016793, 0.423731)" sketch:type="MSShapeGroup">
                    <path d="M0.3745778,31.5746686 L69.0184778,31.5746686 C69.0184778,31.5746686 46.8998878,0.049271066 35.4592378,0.049271066 C24.0185878,0.049271066 0.3745778,31.5746686 0.3745778,31.5746686 L0.3745778,31.5746686 Z" id="Shape" stroke="#1F1F1F" stroke-width="2.669485"></path>
                    <circle id="Oval-1" fill="#1F1F1F" cx="35.32206" cy="8.66092225" r="2"></circle>
                    <circle id="Oval-2" fill="#1F1F1F" cx="44.32206" cy="16.6609222" r="2"></circle>
                    <circle id="Oval-3" fill="#1F1F1F" cx="24.32206" cy="16.6609222" r="2"></circle>
                    <circle id="Oval-4" fill="#1F1F1F" cx="15.32206" cy="24.6609222" r="2"></circle>
                    <circle id="Oval-5" fill="#1F1F1F" cx="34.32206" cy="25.6609222" r="2"></circle>
                    <circle id="Oval-6" fill="#1F1F1F" cx="52.32206" cy="25.6609222" r="2"></circle>
                </g>
                <g id="kolečko" transform="translate(106.251558, 83.420914)" stroke="#1F1F1F" stroke-width="5.00686584" sketch:type="MSShapeGroup">
                    <path d="M16.6760925,-0.489550725 C25.6623986,-0.489550725 32.9472907,6.79528566 32.9472907,15.7816475 C32.9472907,24.7679536 25.6624543,32.0528458 16.6760925,32.0528458 C7.68978642,32.0528458 0.404894247,24.7680094 0.404894247,15.7816475 C0.404894247,6.79534144 7.68973063,-0.489550725 16.6760925,-0.489550725 L16.6760925,-0.489550725 Z" id="Shape"></path>
                </g>
            </g>
        </g>
    </g>
</svg>