<?xml version="1.0" standalone="no"?>
<!DOCTYPE svg PUBLIC "-//W3C//DTD SVG 1.1//EN" "http://www.w3.org/Graphics/SVG/1.1/DTD/svg11.dtd">
<svg width="60px" height="60px" version="1.1" xmlns="http://www.w3.org/2000/svg" xmlns:xlink="http://www.w3.org/1999/xlink" xml:space="preserve" style="fill-rule:evenodd;clip-rule:evenodd;stroke-linecap:round;stroke-linejoin:round;stroke-miterlimit:1.41421;">
    <g>
        <g>
            <path d="M14.4073,55.9737L5.71102,8.03943C5.71102,8.03943 11.612,3.33999 22.6894,3.19159C33.4278,3.04773 36.3464,7.6047 41.583,8.03943C46.4873,8.44658 49.6063,7.44582 49.6063,7.44582L55.0415,27.8266C55.0415,27.8266 50.6446,29.6191 44.8958,29.7063C35.1126,29.8547 33.4041,24.0118 25.2258,24.2649C14.6046,24.5936 9.59327,28.818 9.59327,28.818" style="fill:none;stroke-width:1px;stroke:white;"/>
            <path d="M5.78694,8.03847C14.246,7.2115 18.9417,8.92653 26.544,13.0347C26.544,13.0347 15.1043,15.4586 9.66919,28.3203" style="fill:none;stroke-width:1px;stroke:white;"/>
            <path d="M26.2897,13.1327C26.2897,13.1327 30.3797,12.858 34.1059,14.5673C36.6941,15.7545 39.7455,18.4781 43.941,18.5247C48.3926,18.5741 52.1196,17.3374 52.1196,17.3374" style="fill:none;stroke-width:1px;stroke:white;"/>
        </g>
    </g>
</svg>
