<?xml version="1.0" encoding="UTF-8" standalone="no"?>
<svg width="379px" height="337px" viewBox="0 0 379 337" version="1.1" xmlns="http://www.w3.org/2000/svg" xmlns:xlink="http://www.w3.org/1999/xlink" xmlns:sketch="http://www.bohemiancoding.com/sketch/ns">
    <!-- Generator: Sketch 3.0.4 (8053) - http://www.bohemiancoding.com/sketch -->
    <title>Provizorní strana</title>
    <desc>Created with Sketch.</desc>
    <defs>
        <path id="path-1" d="M41.5869717,131.308493 C45.1692806,132.827181 38.8139719,172.013216 26.6029212,192 C63.6816389,164.249819 59.9559325,136.284204 63.6816352,136.518811 C65.1095864,136.608729 66.5494895,136.654364 68,136.654364 C105.555363,136.654364 136,106.063242 136,68.3271819 C136,30.5911213 105.555363,0 68,0 C30.444637,0 0,30.5911213 0,68.3271819 C0,96.6507297 17.1511398,120.94914 41.5869717,131.308493 Z"></path>
    </defs>
    <g id="Provizorium" stroke="none" stroke-width="1" fill="none" fill-rule="evenodd" sketch:type="MSPage">
        <g id="Provizorní-strana" sketch:type="MSArtboardGroup" transform="translate(-537.000000, -177.000000)">
            <g id="plachta-s-vlnami-2" sketch:type="MSLayerGroup" transform="translate(660.000000, 179.000000)">
                <path d="M71.267449,50.6944813 C60.4919911,28.2120078 41.603589,16.7704091 41.603589,16.7704091 C41.603589,16.7704091 52.1258793,73.8107892 46.299488,97.7704091 C63.3024817,94.5462482 73.8380732,85.7336829 78.4968885,81.308246 C78.4968885,79.9242704 80.0544823,69.0282029 71.267449,50.6944813 Z" id="Path-88" stroke="#A9A9A9" stroke-width="2.5" sketch:type="MSShapeGroup" transform="translate(60.532692, 57.139219) scale(-1, 1) rotate(17.000000) translate(-60.532692, -57.139219) "></path>
                <mask id="mask-2" sketch:name="Oval 2" fill="white">
                    <use xlink:href="#path-1"></use>
                </mask>
                <use id="Oval-2" stroke="#A9A9A9" stroke-width="2.5" sketch:type="MSShapeGroup" xlink:href="#path-1"></use>
                <path d="M8,107 C32.0649189,107 32.3695381,96 32.3695381,96 C32.3695381,96 32.3695381,106.869048 50.494382,106.607143 C68.619226,106.345238 69,96 69,96 C69,96 68.3265059,107 86.7500195,107 C105.173533,107 105.478152,96 105.478152,96 C105.478152,96 105.325843,106.869048 130,106.869048" id="Path-90" stroke="#A9A9A9" stroke-width="2.5" sketch:type="MSShapeGroup" mask="url(#mask-2)"></path>
                <path d="M9,120 C32.8676654,120 33.1697878,109 33.1697878,109 C33.1697878,109 33.1697878,119.869048 51.1460674,119.607143 C69.1223471,119.345238 69.5,109 69.5,109 C69.5,109 68.8320264,120 87.1045275,120 C105.377029,120 105.679151,109 105.679151,109 C105.679151,109 105.52809,119.869048 130,119.869048" id="Path-90" stroke="#A9A9A9" stroke-width="2.5" sketch:type="MSShapeGroup" mask="url(#mask-2)"></path>
            </g>
            <path d="M568.836,416.146 L568.836,411.274 C568.836,405.938 565.24,402.4 559.962,402.4 L546.332,402.4 C541.112,402.4 537.516,405.938 537.516,411.274 L537.516,434.126 C537.516,439.404 541.112,443 546.332,443 L559.962,443 C565.24,443 568.836,439.404 568.836,434.126 L568.836,429.196 L561.934,429.196 L561.934,433.778 C561.934,435.808 560.716,436.968 558.744,436.968 L547.608,436.968 C545.636,436.968 544.418,435.808 544.418,433.778 L544.418,411.622 C544.418,409.592 545.636,408.374 547.608,408.374 L558.744,408.374 C560.716,408.374 561.934,409.592 561.934,411.622 L561.934,416.146 L568.836,416.146 Z M549.58,400.08 L556.772,400.08 L562.804,391.67 L557.004,391.67 L553.234,396.716 L549.522,391.67 L543.548,391.67 L549.58,400.08 Z M596.302,433.14 L596.302,434.242 C596.302,436.214 595.084,437.432 593.112,437.432 L587.022,437.432 C584.992,437.432 583.774,436.214 583.774,434.242 L583.774,430.24 L602.74,430.24 L602.74,421.714 C602.74,416.378 599.202,412.84 593.866,412.84 L586.152,412.84 C580.932,412.84 577.336,416.378 577.336,421.714 L577.336,434.126 C577.336,439.404 580.932,443 586.152,443 L593.866,443 C599.202,443 602.74,439.404 602.74,434.126 L602.74,433.14 L596.302,433.14 Z M583.774,421.598 C583.774,419.568 584.992,418.408 587.022,418.408 L593.112,418.408 C595.084,418.408 596.302,419.568 596.302,421.598 L596.302,425.078 L583.774,425.078 L583.774,421.598 Z M627.48,425.252 L620.404,425.252 C618.49,425.252 617.388,424.15 617.388,422.294 L617.388,421.366 C617.388,419.51 618.49,418.408 620.404,418.408 L626.378,418.408 C628.234,418.408 629.336,419.51 629.336,421.366 L629.336,422.642 L635.774,422.642 L635.774,421.482 C635.774,416.32 632.294,412.84 627.132,412.84 L619.534,412.84 C614.43,412.84 610.95,416.32 610.95,421.482 L610.95,421.714 C610.95,426.934 614.43,430.356 619.534,430.356 L626.668,430.356 C628.524,430.356 629.626,431.516 629.626,433.372 L629.626,434.416 C629.626,436.272 628.524,437.432 626.668,437.432 L620.114,437.432 C618.2,437.432 617.098,436.33 617.098,434.474 L617.098,433.198 L610.66,433.198 L610.66,434.358 C610.66,439.52 614.14,443 619.302,443 L627.48,443 C632.584,443 636.064,439.52 636.064,434.358 L636.064,433.894 C636.064,428.732 632.584,425.252 627.48,425.252 Z M663.182,443 L671.65,443 L658.6,427.514 L670.78,412.84 L663.008,412.84 L651.002,427.398 L651.002,400.08 L644.564,400.08 L644.564,443 L651.002,443 L651.002,428.5 L663.182,443 Z M686.994,454.6 L702.074,412.84 L695.578,412.84 L687.574,435.808 L679.512,412.84 L672.61,412.84 L683.514,443 L684.268,443 L680.092,454.6 L686.994,454.6 Z M688.734,409.36 L695.694,400.08 L688.966,400.08 L683.63,409.36 L688.734,409.36 Z M726.904,454.6 L733.342,454.6 L733.342,440.97 C734.85,442.246 736.88,443 739.316,443 L743.434,443 C748.77,443 752.308,439.404 752.308,434.126 L752.308,421.714 C752.308,416.378 748.77,412.84 743.434,412.84 L739.316,412.84 C736.474,412.84 734.154,413.826 732.588,415.566 L731.834,412.84 L726.904,412.84 L726.904,454.6 Z M745.87,434.242 C745.87,436.214 744.652,437.432 742.68,437.432 L736.59,437.432 C734.56,437.432 733.342,436.214 733.342,434.242 L733.342,421.308 C733.458,419.452 734.618,418.408 736.59,418.408 L742.68,418.408 C744.652,418.408 745.87,419.568 745.87,421.598 L745.87,434.242 Z M784.936,443 L784.936,421.482 C784.936,416.32 781.456,412.84 776.294,412.84 L769.45,412.84 C764.288,412.84 760.808,416.32 760.808,421.482 L760.808,422.7 L767.246,422.7 L767.246,421.366 C767.246,419.51 768.348,418.408 770.262,418.408 L775.482,418.408 C777.338,418.408 778.44,419.51 778.44,421.366 L778.44,427.224 C776.99,426.006 775.018,425.31 772.756,425.31 L768.174,425.31 C762.954,425.31 759.532,428.79 759.532,433.952 L759.532,434.358 C759.532,439.52 762.954,443 768.174,443 L772.756,443 C775.424,443 777.686,442.072 779.194,440.448 L780.006,443 L784.936,443 Z M775.482,437.432 L768.928,437.432 C767.072,437.432 765.97,436.33 765.97,434.474 L765.97,433.43 C765.97,431.516 767.072,430.414 768.928,430.414 L775.482,430.414 C777.338,430.414 778.44,431.516 778.44,433.43 L778.44,434.764 C778.324,436.446 777.222,437.432 775.482,437.432 Z M809.386,443 L820.29,412.84 L813.794,412.84 L805.732,435.75 L797.728,412.84 L790.826,412.84 L801.73,443 L809.386,443 Z M826.18,443 L832.618,443 L832.618,412.84 L826.18,412.84 L826.18,443 Z M826.18,408.49 L832.618,408.49 L832.618,401.008 L826.18,401.008 L826.18,408.49 Z M841.698,443 L848.136,443 L848.136,400.08 L841.698,400.08 L841.698,443 Z M882.04,434.126 L882.04,421.714 C882.04,416.378 878.502,412.84 873.166,412.84 L865.452,412.84 C860.232,412.84 856.636,416.378 856.636,421.714 L856.636,434.126 C856.636,439.404 860.232,443 865.452,443 L873.166,443 C878.502,443 882.04,439.404 882.04,434.126 Z M875.602,434.242 C875.602,436.214 874.384,437.432 872.412,437.432 L866.322,437.432 C864.292,437.432 863.074,436.214 863.074,434.242 L863.074,421.598 C863.074,419.568 864.292,418.408 866.322,418.408 L872.412,418.408 C874.384,418.408 875.602,419.568 875.602,421.598 L875.602,434.242 Z M915.944,443 L915.944,421.714 C915.944,416.378 912.406,412.84 907.07,412.84 L902.952,412.84 C900.11,412.84 897.79,413.826 896.224,415.566 L895.47,412.84 L890.54,412.84 L890.54,443 L896.978,443 L896.978,421.308 C897.094,419.452 898.254,418.408 900.226,418.408 L906.316,418.408 C908.288,418.408 909.506,419.568 909.506,421.598 L909.506,443 L915.944,443 Z M595.538,514 L620.652,514 L620.652,511.622 L598.206,511.622 L598.206,494.86 L617.752,494.86 L617.752,492.482 L598.206,492.482 L598.206,475.72 L620.652,475.72 L620.652,473.4 L595.538,473.4 L595.538,514 Z M653.628,514 L656.818,514 L643.188,493.642 L656.818,473.4 L653.744,473.4 L641.68,491.438 L629.674,473.4 L626.484,473.4 L640.056,493.758 L626.484,514 L629.558,514 L641.564,495.904 L653.628,514 Z M691.824,489.35 L691.824,481.81 C691.824,476.764 688.46,473.4 683.414,473.4 L664.68,473.4 L664.68,514 L667.348,514 L667.348,497.76 L683.414,497.76 C688.46,497.76 691.824,494.338 691.824,489.35 Z M689.156,489.234 C689.156,492.946 686.72,495.382 683.008,495.382 L667.348,495.382 L667.348,475.72 L683.008,475.72 C686.72,475.72 689.156,478.156 689.156,481.868 L689.156,489.234 Z M729.092,505.59 L729.092,481.81 C729.092,476.764 725.728,473.4 720.682,473.4 L708.328,473.4 C703.34,473.4 699.918,476.764 699.918,481.81 L699.918,505.59 C699.918,510.578 703.34,514 708.328,514 L720.682,514 C725.728,514 729.092,510.578 729.092,505.59 Z M726.424,505.532 C726.424,509.186 723.988,511.622 720.276,511.622 L708.734,511.622 C705.08,511.622 702.586,509.186 702.586,505.532 L702.586,481.868 C702.586,478.156 705.08,475.72 708.734,475.72 L720.276,475.72 C723.988,475.72 726.424,478.156 726.424,481.868 L726.424,505.532 Z M762.474,491.728 C764.098,490.22 765.084,488.016 765.084,485.348 L765.084,481.81 C765.084,476.764 761.72,473.4 756.674,473.4 L747.742,473.4 C742.754,473.4 739.332,476.764 739.332,481.81 L739.332,486.856 L742,486.856 L742,481.868 C742,478.156 744.494,475.72 748.148,475.72 L756.268,475.72 C759.98,475.72 762.416,478.156 762.416,481.868 L762.416,485.58 C762.416,487.436 761.836,489.06 760.618,490.162 L739.332,511.622 L739.332,514 L765.026,514 L765.026,511.622 L742.87,511.622 L762.474,491.728 Z M802.178,505.59 L802.178,481.81 C802.178,476.764 798.814,473.4 793.768,473.4 L783.734,473.4 C778.746,473.4 775.324,476.764 775.324,481.81 L775.324,505.59 C775.324,510.578 778.746,514 783.734,514 L793.768,514 C798.814,514 802.178,510.578 802.178,505.59 Z M799.51,505.532 C799.51,509.186 797.074,511.622 793.362,511.622 L784.14,511.622 C780.486,511.622 777.992,509.186 777.992,505.532 L777.992,481.868 C777.992,478.156 780.486,475.72 784.14,475.72 L793.362,475.72 C797.074,475.72 799.51,478.156 799.51,481.868 L799.51,505.532 Z M821.93,473.4 L819.262,473.4 L810.272,479.838 L810.272,482.564 L819.262,476.126 L819.262,514 L821.93,514 L821.93,473.4 Z M832.17,498.804 L834.838,498.804 L834.838,497.934 C834.954,494.396 837.39,492.076 840.986,492.076 L849.106,492.076 C852.818,492.076 855.254,494.512 855.254,498.224 L855.254,505.532 C855.254,509.186 852.818,511.622 849.106,511.622 L840.986,511.622 C837.332,511.622 834.838,509.186 834.838,505.532 L834.838,503.966 L832.17,503.966 L832.17,505.59 C832.17,510.578 835.592,514 840.58,514 L849.512,514 C854.558,514 857.922,510.578 857.922,505.59 L857.922,498.166 C857.922,493.062 854.558,489.756 849.512,489.756 L841.102,489.756 C838.492,489.756 836.288,490.684 834.838,492.308 L834.838,475.72 L856.762,475.72 L856.762,473.4 L832.17,473.4 L832.17,498.804 Z" id="Český-pavilon" fill="#A9A9A9" sketch:type="MSShapeGroup"></path>
        </g>
    </g>
</svg>