<?xml version="1.0" encoding="UTF-8" standalone="no"?>
<svg width="187px" height="73px" viewBox="0 0 187 73" version="1.1" xmlns="http://www.w3.org/2000/svg" xmlns:xlink="http://www.w3.org/1999/xlink" xmlns:sketch="http://www.bohemiancoding.com/sketch/ns">
    <!-- Generator: Sketch 3.1 (8751) - http://www.bohemiancoding.com/sketch -->
    <title>Logo EXPO2015</title>
    <desc>Created with Sketch.</desc>
    <defs></defs>
    <g id="Ikony,-Loga" stroke="none" stroke-width="1" fill="none" fill-rule="evenodd" sketch:type="MSPage">
        <g id="Logo-EXPO2015" sketch:type="MSArtboardGroup">
            <g id="expo-2015-milano-2" sketch:type="MSLayerGroup">
                <path d="M1.07704468,61.500994 L2.24823663,61.500994 L5.2411781,68.217302 C5.50196602,68.8023528 5.79758842,69.6135102 5.79758842,69.6135102 L5.82677407,69.6135102 C5.82677407,69.6135102 6.14028446,68.8023528 6.40107237,68.217302 L9.39495532,61.500994 L10.5482593,61.500994 L11.4586633,72.9316245 L10.3354865,72.9316245 L9.70187539,64.9302773 C9.65480176,64.3122527 9.67268974,63.3352837 9.67268974,63.3352837 L9.63691378,63.3352837 C9.63691378,63.3352837 9.29421775,64.3452265 9.03342983,64.9302773 L6.34834991,70.8005698 L5.29201762,70.8005698 L2.60317181,64.9302773 C2.34332536,64.3603003 1.98839018,63.3041941 1.98839018,63.3041941 L1.95261422,63.3041941 C1.95261422,63.3041941 1.9705022,64.3122527 1.92060415,64.9302773 L1.28699308,72.9316245 L0.162874764,72.9316245 L1.07704468,61.500994" id="Fill-1" fill="#1A1918" sketch:type="MSShapeGroup"></path>
                <path d="M14.4224191,61.500994 L15.5465374,61.500994 L15.5465374,72.9353929 L14.4224191,72.9353929 L14.4224191,61.500994 Z" id="Fill-2" fill="#1A1918" sketch:type="MSShapeGroup"></path>
                <path d="M18.8652284,61.500994 L19.9884053,61.500994 L19.9884053,71.9226238 L25.2954865,71.9226238 L25.2954865,72.9316245 L18.8652284,72.9316245 L18.8652284,61.500994" id="Fill-3" fill="#1A1918" sketch:type="MSShapeGroup"></path>
                <path d="M30.6374021,62.6880536 C30.6374021,62.6880536 30.3879119,63.6301644 30.1958515,64.1652834 L28.6668999,68.3105709 L32.603197,68.3105709 L31.107197,64.1652834 C30.9094877,63.6301644 30.6665878,62.6880536 30.6665878,62.6880536 L30.6374021,62.6880536 L30.6374021,62.6880536 Z M32.9440101,69.2875399 L28.3392675,69.2875399 L27.0372108,72.9316245 L25.8518968,72.9316245 L30.0508647,61.4991098 L31.2521838,61.4991098 L35.4520931,72.9316245 L34.2658376,72.9316245 L32.9440101,69.2875399 L32.9440101,69.2875399 Z" id="Fill-4" fill="#1A1918" sketch:type="MSShapeGroup"></path>
                <path d="M37.3246822,61.500994 L38.415849,61.500994 L44.2586281,69.7293898 C44.6493392,70.2946563 45.2048081,71.2716252 45.2048081,71.2716252 L45.2349352,71.2716252 C45.2349352,71.2716252 45.1398464,70.3295144 45.1398464,69.7293898 L45.1398464,61.500994 L46.2639648,61.500994 L46.2639648,72.9316245 L45.1690321,72.9316245 L39.326253,64.7041708 C38.9364833,64.1360779 38.380073,63.159109 38.380073,63.159109 L38.3508874,63.159109 C38.3508874,63.159109 38.447859,64.0993356 38.447859,64.7041708 L38.447859,72.9316245 L37.3246822,72.9316245 L37.3246822,61.500994" id="Fill-5" fill="#1A1918" sketch:type="MSShapeGroup"></path>
                <path d="M54.6280076,72.0846669 C57.2019937,72.0846669 59.2835897,69.9394805 59.2835897,67.1423535 C59.2835897,64.4102322 57.2019937,62.3451253 54.6280076,62.3451253 C52.0370749,62.3451253 49.9733669,64.4102322 49.9733669,67.1423535 C49.9733669,69.9394805 52.0370749,72.0846669 54.6280076,72.0846669 M54.6280076,61.305977 C57.8704393,61.305977 60.4547816,63.8600395 60.4547816,67.1423535 C60.4547816,70.4896733 57.8704393,73.1247572 54.6280076,73.1247572 C51.3865173,73.1247572 48.8012335,70.4896733 48.8012335,67.1423535 C48.8012335,63.8600395 51.3865173,61.305977 54.6280076,61.305977" id="Fill-6" fill="#1A1918" sketch:type="MSShapeGroup"></path>
                <path d="M99.869533,32.6526187 L114.096126,32.6526187 L114.096126,46.7710914 L99.869533,46.7710914 L99.869533,32.6526187 Z" id="Fill-7" fill="#D8117D" sketch:type="MSShapeGroup"></path>
                <path d="M6.63173317,16.7262354 C8.2021095,14.6243862 9.81391064,12.9050339 11.4765513,11.6708688 L0.183587162,11.6708688 L6.63173317,16.7262354" id="Fill-8" fill="#F8D51B" sketch:type="MSShapeGroup"></path>
                <path d="M25.2182857,29.432484 L33.6237533,29.432484 L33.6237533,17.6975517 C32.7491252,22.2696154 29.9708395,25.4869239 25.2182857,29.432484" id="Fill-9" fill="#D8117D" sketch:type="MSShapeGroup"></path>
                <path d="M23.1357483,17.6231249 L0.187353052,17.6231249 L0.187353052,29.432484 L11.5000881,29.432484 L15.5757231,26.0879906 C19.9064972,22.5004326 22.2488811,20.1866084 23.1357483,17.6231249" id="Fill-10" fill="#D8117D" sketch:type="MSShapeGroup"></path>
                <path d="M33.9316149,14.1307201 C33.9316149,13.2724572 33.8666532,12.4556471 33.7452033,11.6708688 L22.6367678,11.6708688 C23.230837,12.4905052 23.5650598,13.5739326 23.5650598,14.9918094 C23.5650598,15.9273254 23.4257218,16.7884147 23.1395142,17.6231249 L33.6237533,17.6231249 L33.6237533,17.6975517 C33.8318188,16.6348507 33.9316149,15.5005492 33.9316149,14.2635577 L33.9316149,14.1307201" id="Fill-11" fill="#F8D51B" sketch:type="MSShapeGroup"></path>
                <path d="M23.1357483,17.6231249 C22.2488811,20.1866084 19.9064972,22.5004326 15.5757231,26.0879906 L11.5000881,29.432484 L25.2182857,29.432484 C29.9708395,25.4869239 32.7519497,22.2733839 33.6237533,17.6975517 L33.6237533,17.6231249 L23.1357483,17.6231249" id="Fill-12" fill="#AC2429" sketch:type="MSShapeGroup"></path>
                <path d="M21.7809692,32.1674317 C23.023713,31.2083628 24.1713682,30.2963996 25.2182857,29.432484 L11.5029125,29.432484 L4.06716174,35.5260567 L17.4332486,35.5260567 L21.7809692,32.1674317" id="Fill-13" fill="#F8D51B" sketch:type="MSShapeGroup"></path>
                <path d="M17.4332486,35.5260567 L14.2510711,37.9830817 L33.6237533,37.9830817 L33.6237533,35.5260567 L17.4332486,35.5260567" id="Fill-14" fill="#00A3DB" sketch:type="MSShapeGroup"></path>
                <path d="M0.187353052,35.5260567 L0.187353052,38.7075649 L4.07092763,35.5260567 L0.187353052,35.5260567" id="Fill-15" fill="#00A3DB" sketch:type="MSShapeGroup"></path>
                <path d="M17.4332486,35.5260567 L4.07092763,35.5260567 L0.187353052,38.7075649 L0.187353052,46.7710914 L33.6237533,46.7710914 L33.6237533,37.9830817 L14.2510711,37.9830817 L17.4332486,35.5260567" id="Fill-16" fill="#008B46" sketch:type="MSShapeGroup"></path>
                <path d="M85.5902177,32.6997243 C84.0518515,37.5713793 81.2594437,41.6026715 77.4737823,44.2226816 L80.8216589,47.5728277 L90.6299207,37.7494382 L85.5902177,32.6997243" id="Fill-17" fill="#00A3DB" sketch:type="MSShapeGroup"></path>
                <path d="M55.9008785,2.99308606 L52.5407627,-0.366481107 L42.7268521,9.45690836 L47.784443,14.512275 C49.316219,9.64627263 52.1142756,5.61498046 55.9008785,2.99308606" id="Fill-18" fill="#00A3DB" sketch:type="MSShapeGroup"></path>
                <path d="M56.864005,23.4717488 C56.864005,17.0041581 59.0115041,11.8903806 62.744443,9.84223168 L55.9008785,2.99308606 C52.1142756,5.61215412 49.316219,9.6434463 47.7778527,14.5151013 L56.864005,23.5989338 L56.864005,23.4717488" id="Fill-19" fill="#008B46" sketch:type="MSShapeGroup"></path>
                <path d="M85.5902177,32.6997243 L76.5040654,23.6074128 L76.5040654,23.7345978 C76.5040654,30.1663883 74.3801032,35.3103133 70.6179786,37.3707097 L77.4737823,44.2226816 C81.2594437,41.6026715 84.0518515,37.5713793 85.5902177,32.6997243" id="Fill-20" fill="#008B46" sketch:type="MSShapeGroup"></path>
                <path d="M62.744443,9.84223168 C59.0115041,11.8875543 56.864005,17.0013318 56.864005,23.4717488 L56.864005,23.6017601 L66.684506,13.7783707 L62.744443,9.84223168" id="Fill-21" fill="#00A3DB" sketch:type="MSShapeGroup"></path>
                <path d="M66.684506,33.4279759 L70.6179786,37.3707097 C74.3801032,35.3131397 76.5040654,30.1663883 76.5040654,23.7345978 L76.5040654,23.6074128 L76.4974751,23.6017601 L66.684506,33.4279759" id="Fill-22" fill="#00A3DB" sketch:type="MSShapeGroup"></path>
                <path d="M66.7438188,-0.315607123 C62.5966318,-0.315607123 58.9352448,0.885584166 55.9008785,2.99308606 L62.744443,9.84505801 C63.8920982,9.21101744 65.1875645,8.87091543 66.6195444,8.87091543 C68.0684707,8.87091543 69.3874739,9.23174387 70.553017,9.89781622 L77.5095582,2.94315419 C74.4921385,0.86768406 70.8665274,-0.315607123 66.7438188,-0.315607123" id="Fill-23" fill="#F8D51B" sketch:type="MSShapeGroup"></path>
                <path d="M76.5040654,23.5989338 L76.5040654,23.6074128 L85.5902177,32.6997243 C86.4648458,29.9025973 86.9384065,26.8369687 86.9384065,23.6045865 L86.9384065,23.4689225 C86.9384065,20.2629194 86.477085,17.2349752 85.6137546,14.4764748 L76.5040654,23.5989338" id="Fill-24" fill="#F8D51B" sketch:type="MSShapeGroup"></path>
                <path d="M70.553017,9.89781622 L66.6779157,13.781197 L76.4974751,23.6017601 L76.5040654,23.5989338 C76.4974751,17.2114225 74.2916048,12.0175656 70.553017,9.89781622" id="Fill-25" fill="#D8117D" sketch:type="MSShapeGroup"></path>
                <path d="M85.6137546,14.4764748 L90.6299207,9.45690836 L80.8160101,-0.366481107 L77.5095582,2.94315419 C81.2952196,5.55939592 84.0932763,9.58691965 85.6137546,14.4764748" id="Fill-26" fill="#D8117D" sketch:type="MSShapeGroup"></path>
                <path d="M77.5095582,2.94315419 L70.5586658,9.89781622 C74.2916048,12.0175656 76.4974751,17.2114225 76.5040654,23.5989338 L85.6137546,14.4764748 C84.0876274,9.58691965 81.2952196,5.55939592 77.5095582,2.94315419" id="Fill-27" fill="#AC2429" sketch:type="MSShapeGroup"></path>
                <path d="M56.864005,23.6017601 L56.864005,23.5989338 L47.7778527,14.512275 C46.8966344,17.3065757 46.4296639,20.3693779 46.4296639,23.6017601 L46.4296639,23.7317714 C46.4296639,26.9434272 46.8787464,29.9798503 47.7307791,32.7355245 L56.864005,23.6045865 L56.864005,23.6017601" id="Fill-28" fill="#F8D51B" sketch:type="MSShapeGroup"></path>
                <path d="M77.4737823,44.2245659 L70.6179786,37.3678834 C69.4759723,37.9953292 68.180506,38.3354312 66.7438188,38.3354312 C65.2817118,38.3354312 63.9570598,37.9774291 62.7858678,37.322662 L55.8293266,44.2839188 C58.8345072,46.3480836 62.4667086,47.5219537 66.6195444,47.5219537 C70.7780289,47.5219537 74.439416,46.3235888 77.4737823,44.2245659" id="Fill-29" fill="#F8D51B" sketch:type="MSShapeGroup"></path>
                <path d="M47.7307791,32.7383508 L42.7268521,37.7494382 L52.5407627,47.5700014 L55.8236778,44.2839188 C52.0257772,41.6770982 49.2456086,37.6429797 47.7307791,32.7383508" id="Fill-30" fill="#D8117D" sketch:type="MSShapeGroup"></path>
                <path d="M62.7858678,37.322662 L66.684506,33.4279759 L56.864005,23.6017601 L56.864005,23.6045865 C56.864005,30.0486244 59.0359824,35.2217549 62.7858678,37.322662" id="Fill-31" fill="#D8117D" sketch:type="MSShapeGroup"></path>
                <path d="M56.864005,23.6045865 L47.7307791,32.7355245 C49.2456086,37.6429797 52.0257772,41.6770982 55.8293266,44.2839188 L62.7858678,37.322662 C59.0359824,35.2217549 56.864005,30.0486244 56.864005,23.6045865" id="Fill-32" fill="#AC2429" sketch:type="MSShapeGroup"></path>
                <path d="M66.684506,13.781197 L56.864005,23.6017601 L66.684506,33.4251496 L76.4974751,23.6017601 L66.684506,13.781197" id="Fill-33" fill="#383880" sketch:type="MSShapeGroup"></path>
                <path d="M132.203469,16.2137271 C132.203469,11.511652 129.967471,5.4877955 124.1294,2.4221669 L124.1294,30.5780907 C129.126736,28.1003393 132.203469,23.379422 132.203469,16.2137271" id="Fill-34" fill="#00A3DB" sketch:type="MSShapeGroup"></path>
                <path d="M114.096126,46.7710914 L124.1294,46.7710914 L124.1294,30.5780907 C121.324753,31.9686463 117.911914,32.6497924 114.096126,32.6497924 L114.096126,46.7710914" id="Fill-35" fill="#F8D51B" sketch:type="MSShapeGroup"></path>
                <path d="M124.135048,2.4221669 C121.786074,1.18800174 118.864685,0.430544642 115.256962,0.430544642 L114.096126,0.430544642 L114.096126,32.6497924 C117.911914,32.6497924 121.324753,31.9658199 124.135048,30.5752644 L124.135048,2.4221669" id="Fill-36" fill="#008B46" sketch:type="MSShapeGroup"></path>
                <path d="M179.012546,5.94942979 L178.331862,10.6411417 L166.152972,10.6411417 L166.146381,10.6467943 C171.026034,11.7952274 174.884189,15.6013551 176.114694,20.45511 C178.9956,22.8264029 180.633762,26.4968667 180.633762,31.660576 C180.633762,42.0878585 172.843076,47.6726914 163.042346,47.7150864 L163.042346,47.7263918 C176.263446,47.7263918 186.976463,37.0061128 186.976463,23.778877 C186.976463,16.6998563 183.899731,10.3358977 179.012546,5.94942979" id="Fill-37" fill="#D8117D" sketch:type="MSShapeGroup"></path>
                <path d="M163.042346,-0.167695725 L163.042346,2.26766073 L173.552947,2.26766073 C170.383008,0.711293665 166.815768,-0.167695725 163.042346,-0.167695725" id="Fill-38" fill="#D8117D" sketch:type="MSShapeGroup"></path>
                <path d="M163.042346,10.2831395 L163.042346,10.2803132 L163.042346,10.2831395" id="Fill-39" fill="#D8117D" sketch:type="MSShapeGroup"></path>
                <path d="M149.684733,21.917266 L149.684733,21.917266 C149.595293,22.521159 149.554809,23.1457785 149.554809,23.7760506 C149.554809,31.2319156 155.593415,37.2764986 163.042346,37.2764986 L163.042346,25.6442564 C161.313802,25.6442564 159.331061,26.176549 157.836003,27.0790911 L149.684733,21.917266" id="Fill-40" fill="#00A3DB" sketch:type="MSShapeGroup"></path>
                <path d="M159.213377,17.6080511 C160.544619,17.2886756 161.508687,17.1172114 163.042346,17.0635111 L163.042346,10.2831395 C162.070746,10.2831395 161.129274,10.3867717 160.219811,10.5789623 L159.213377,17.6080511" id="Fill-41" fill="#00A3DB" sketch:type="MSShapeGroup"></path>
                <path d="M176.114694,20.45511 C173.275212,18.1149067 169.216524,17.0427846 164.331222,17.0427846 C163.851071,17.0427846 163.432116,17.045611 163.042346,17.0606847 L163.042346,25.6442564 C168.330598,25.6442564 171.268934,28.0089545 171.268934,31.6341969 C171.268934,34.754468 167.956833,36.9712547 163.899086,37.2435247 C170.950716,36.8045011 176.535532,30.9389192 176.535532,23.778877 C176.535532,22.6285597 176.386779,21.5206373 176.114694,20.45511" id="Fill-42" fill="#F8D51B" sketch:type="MSShapeGroup"></path>
                <path d="M159.213377,17.6080511 L160.219811,10.5789623 C154.717845,11.7537745 150.464272,16.2759064 149.684733,21.917266 L157.836003,27.0790911 C159.331061,26.176549 161.308154,25.6470827 163.042346,25.6470827 L163.042346,17.0635111 C161.508687,17.1172114 160.544619,17.2886756 159.213377,17.6080511" id="Fill-43" fill="#008B46" sketch:type="MSShapeGroup"></path>
                <path d="M152.516682,2.26766073 L152.524214,2.26766073 L152.516682,2.26766073" id="Fill-44" fill="#F8D51B" sketch:type="MSShapeGroup"></path>
                <path d="M163.042346,10.2831395 L163.042346,10.2803132 L163.042346,10.2831395" id="Fill-45" fill="#383880" sketch:type="MSShapeGroup"></path>
                <path d="M152.564697,2.25070274 L152.5534,2.25070274 L152.529863,2.2648344 C152.529863,2.2648344 152.524214,2.2648344 152.524214,2.27142917 L152.505385,2.27425551 L152.505385,2.27708184 C144.573478,6.18118906 139.108229,14.3408108 139.108229,23.778877 C139.108229,30.2907469 141.704811,36.1808237 145.915076,40.4985176 C150.263738,44.956586 156.326822,47.7263918 163.034814,47.7263918 L163.042346,47.7150864 L163.042346,37.2764986 C158.930935,37.2764986 155.256368,35.4318456 152.77747,32.5282601 C150.766485,30.1748673 149.554809,27.1177177 149.554809,23.778877 C149.554809,23.1457785 149.595293,22.521159 149.684733,21.9144397 C150.464272,16.2759064 154.717845,11.7537745 160.219811,10.5817887 C161.129274,10.3867717 162.070746,10.2831395 163.042346,10.2831395 L163.042346,-0.171464168 C159.280222,-0.171464168 155.723338,0.701872557 152.564697,2.25070274" id="Fill-46" fill="#383880" sketch:type="MSShapeGroup"></path>
                <path d="M160.219811,10.5789623 L160.219811,10.5789623 C161.129274,10.3867717 162.070746,10.2831395 163.042346,10.2831395 L163.042346,2.24693429 L152.5534,2.24693429 L152.505385,2.27708184 L149.672493,21.900308 L149.684733,21.9116133 L149.684733,21.917266 C150.464272,16.2759064 154.717845,11.7537745 160.219811,10.5789623" id="Fill-47" fill="#000000" sketch:type="MSShapeGroup"></path>
                <path d="M145.909427,40.4636595 C145.909427,40.4749648 145.915076,40.4872123 145.915076,40.502286 C150.263738,44.956586 156.326822,47.7245075 163.034814,47.7245075 L163.042346,47.7150864 L163.042346,37.2764986 C158.930935,37.2764986 155.256368,35.4318456 152.77747,32.5310864 L145.909427,40.4636595" id="Fill-48" fill="#000000" sketch:type="MSShapeGroup"></path>
                <path d="M180.633762,31.660576 C180.633762,26.4968667 178.9956,22.8264029 176.114694,20.45511 C176.386779,21.517811 176.535532,22.631386 176.535532,23.778877 C176.535532,30.9417455 170.950716,36.8016748 163.899086,37.2435247 C163.661835,37.2538879 163.314432,37.2764986 163.042346,37.2764986 L163.042346,47.7150864 C172.843076,47.6726914 180.633762,42.0878585 180.633762,31.660576" id="Fill-49" fill="#AC2429" sketch:type="MSShapeGroup"></path>
                <path d="M163.042346,10.2831395 C164.107152,10.2831395 165.147479,10.4131508 166.146381,10.6467943 L166.146381,10.643968 L178.331862,10.643968 L179.012546,5.94754557 C177.392272,4.47596848 175.451897,3.21825054 173.523761,2.24693429 L163.042346,2.24693429 L163.042346,10.2831395" id="Fill-50" fill="#AC2429" sketch:type="MSShapeGroup"></path>
                <path d="M114.091419,0.426776199 L99.869533,0.426776199 L99.869533,32.6497924 L114.096126,32.6497924 L114.096126,0.426776199 L114.091419,0.426776199" id="Fill-51" fill="#383880" sketch:type="MSShapeGroup"></path>
                <path d="M102.473646,10.252992 L102.473646,16.8298676 L114.096126,16.8298676 L114.096126,0.426776199 C114.096126,7.41535422 109.96871,10.252992 102.473646,10.252992" id="Fill-52" fill="#000000" sketch:type="MSShapeGroup"></path>
                <path d="M152.529863,2.26766073 L152.516682,2.26766073 L152.529863,2.26766073" id="Fill-53" fill="#00E6E6" sketch:type="MSShapeGroup"></path>
                <path d="M17.4275997,9.54264044 C15.3629503,9.48140324 13.3811504,10.252992 11.4765513,11.6708688 L22.6367678,11.6708688 C21.5945576,10.2322656 19.740798,9.62554619 17.4275997,9.54264044" id="Fill-54" fill="#00A3DB" sketch:type="MSShapeGroup"></path>
                <path d="M33.7423789,11.6708688 L33.7574424,11.6708688 L33.7574424,0.426776199 L17.9124581,0.426776199 C26.5467036,0.426776199 32.6239094,4.52590035 33.7423789,11.6708688" id="Fill-55" fill="#00A3DB" sketch:type="MSShapeGroup"></path>
                <path d="M17.9152826,0.426776199 L0.183587162,0.426776199 L0.183587162,11.6708688 C4.20649969,5.17407259 9.6604506,0.426776199 17.9152826,0.426776199" id="Fill-56" fill="#00A3DB" sketch:type="MSShapeGroup"></path>
                <path d="M17.9152826,0.426776199 C9.6604506,0.426776199 4.20649969,5.17407259 0.183587162,11.6708688 L11.4765513,11.6708688 C13.3811504,10.252992 15.3657747,9.4776348 17.4275997,9.54264044 C19.740798,9.62271986 21.5945576,10.2322656 22.6330019,11.6708688 L33.7423789,11.6708688 C32.6239094,4.52590035 26.5429377,0.426776199 17.9152826,0.426776199" id="Fill-57" fill="#008B46" sketch:type="MSShapeGroup"></path>
                <path d="M0.160050346,56.3928691 L33.6237533,56.3928691 L33.6237533,56.8874773 L0.160050346,56.8874773 L0.160050346,56.3928691 Z" id="Fill-58" fill="#1A1918" sketch:type="MSShapeGroup"></path>
            </g>
        </g>
    </g>
</svg>