<?xml version="1.0" encoding="UTF-8" standalone="no"?>
<svg width="45px" height="60px" viewBox="0 0 45 60" version="1.1" xmlns="http://www.w3.org/2000/svg" xmlns:xlink="http://www.w3.org/1999/xlink" xmlns:sketch="http://www.bohemiancoding.com/sketch/ns">
    <!-- Generator: Sketch 3.0.4 (8054) - http://www.bohemiancoding.com/sketch -->
    <title>zarovka</title>
    <desc>Created with Sketch.</desc>
    <defs></defs>
    <g id="Homepage" stroke="none" stroke-width="1" fill="none" fill-rule="evenodd" sketch:type="MSPage">
        <g sketch:type="MSArtboardGroup" transform="translate(-658.000000, -4839.000000)" id="Výhody-modulární-výstavby" fill="#4A4A4A">
            <g sketch:type="MSLayerGroup" transform="translate(0.000000, 4529.000000)">
                <g id="Výhody-modulární-výstavby-2" transform="translate(233.000000, 308.000000)" sketch:type="MSShapeGroup">
                    <g id="žárovka" transform="translate(425.000000, 2.000000)">
                        <path d="M23.9543708,31.6719224 L24,31.5617638 L24,31.9116013 C23.9913305,31.8308529 23.9761208,31.7506737 23.9543708,31.6719224 Z M24.0049269,32.1781572 L28.6224239,27.5606602 C29.2082104,26.9748737 29.2082104,26.0251263 28.6224239,25.4393398 C28.0366375,24.8535534 27.08689,24.8535534 26.5011036,25.4393398 L22.2488637,29.6915797 L18.1856602,25.6283761 C17.5998737,25.0425897 16.6501263,25.0425897 16.0643398,25.6283761 C15.4785534,26.2141626 15.4785534,27.16391 16.0643398,27.7496965 L21,32.6853566 L21,45.3140363 C21,46.1424634 21.6715729,46.8140363 22.5,46.8140363 C23.3284271,46.8140363 24,46.1424634 24,45.3140363 L24,32.233709 C24.0019852,32.2152182 24.0036275,32.1966975 24.0049269,32.1781572 Z" id="Path-153"></path>
                        <path d="M14.8725586,47.125 L14.8725586,48.625 L16.3725586,48.625 L28.4975586,48.625 L29.9975586,48.625 L29.9975586,47.125 C29.9975586,44.5195817 31.466,42.0787841 33.4824115,40.3311786 C38.1559953,36.280626 40.125,32.5198745 40.125,27 C40.125,17.531178 32.3603102,10 22.5009766,10 C12.6616249,10 5,17.5111092 5,27 C5,32.5149662 7.25833273,37.3285704 11.4285186,40.4047687 C13.6489592,42.0427089 14.8725586,44.0458426 14.8725586,47.125 Z M8,27 C8,19.1814324 14.3053025,13 22.5009766,13 C30.7236094,13 37.125,19.208878 37.125,27 C37.125,31.5843952 35.5723555,34.5499089 31.5175885,38.0641385 C28.906519,40.3271287 26.9975586,43.5001433 26.9975586,47.125 L28.4975586,45.625 L16.3725586,45.625 L17.8725586,47.125 C17.8725586,42.9905391 16.1379439,40.150831 13.2094024,37.9905497 C9.83322982,35.5000669 8,31.5925636 8,27 Z" id="Oval-13"></path>
                        <path d="M28.1255734,54 C28.9540005,54 29.6255734,53.3284271 29.6255734,52.5 C29.6255734,51.6715729 28.9540005,51 28.1255734,51 L16.5,51 C15.6715729,51 15,51.6715729 15,52.5 C15,53.3284271 15.6715729,54 16.5,54 L28.1255734,54 Z" id="Path-151"></path>
                        <path d="M25.501116,60 C26.3295431,60 27.001116,59.3284271 27.001116,58.5 C27.001116,57.6715729 26.3295431,57 25.501116,57 L19.5,57 C18.6715729,57 18,57.6715729 18,58.5 C18,59.3284271 18.6715729,60 19.5,60 L25.501116,60 Z" id="Path-152"></path>
                        <path d="M4.12701637,14.248825 C4.7128028,14.8346114 5.66255027,14.8346114 6.24833671,14.248825 C6.83412315,13.6630386 6.83412315,12.7132911 6.24833671,12.1275046 L3.31017189,9.18933983 C2.72438545,8.60355339 1.77463798,8.60355339 1.18885155,9.18933983 C0.603065109,9.77512627 0.603065109,10.7248737 1.18885155,11.3106602 L4.12701637,14.248825 Z" id="Path-157"></path>
                        <path d="M38.7516633,12.1275046 C38.1658769,12.7132911 38.1658769,13.6630386 38.7516633,14.248825 C39.3374497,14.8346114 40.2871972,14.8346114 40.8729836,14.248825 L43.8111485,11.3106602 C44.3969349,10.7248737 44.3969349,9.77512627 43.8111485,9.18933983 C43.225362,8.60355339 42.2756145,8.60355339 41.6898281,9.18933983 L38.7516633,12.1275046 Z" id="Path-157"></path>
                        <path d="M21,5.65519253 C21,6.48361966 21.6715729,7.15519253 22.5,7.15519253 C23.3284271,7.15519253 24,6.48361966 24,5.65519253 L24,1.5 C24,0.671572875 23.3284271,0 22.5,0 C21.6715729,0 21,0.671572875 21,1.5 L21,5.65519253 Z" id="Path-157"></path>
                    </g>
                </g>
            </g>
        </g>
    </g>
</svg>